<?xml version="1.0" encoding="UTF-8"?>
<svg xmlns="http://www.w3.org/2000/svg" xmlns:xlink="http://www.w3.org/1999/xlink" viewBox="0 0 600 1024">
  <defs>
    <style>
      .cls-1 {
        fill: #d8d0d0;
      }

      .cls-1, .cls-2, .cls-3, .cls-4, .cls-5, .cls-6, .cls-7, .cls-8, .cls-9, .cls-10, .cls-11, .cls-12, .cls-13, .cls-14, .cls-15 {
        stroke-width: 0px;
      }

      .cls-16 {
        clip-path: url(#clippath-20);
      }

      .cls-17 {
        clip-path: url(#clippath-11);
      }

      .cls-18 {
        clip-path: url(#clippath-16);
      }

      .cls-19 {
        stroke-linejoin: round;
      }

      .cls-19, .cls-20 {
        stroke: #000;
      }

      .cls-19, .cls-20, .cls-9, .cls-21, .cls-22 {
        fill: none;
      }

      .cls-23 {
        clip-path: url(#clippath-33);
      }

      .cls-2 {
        fill: #f18a50;
      }

      .cls-3 {
        fill: #c34750;
      }

      .cls-20, .cls-21, .cls-22 {
        stroke-miterlimit: 10;
      }

      .cls-4 {
        fill: #efbebe;
      }

      .cls-24 {
        clip-path: url(#clippath-41);
      }

      .cls-25 {
        clip-path: url(#clippath-32);
      }

      .cls-5, .cls-10 {
        fill: #3c3c3b;
      }

      .cls-5, .cls-13 {
        fill-rule: evenodd;
      }

      .cls-26 {
        clip-path: url(#clippath-2);
      }

      .cls-27 {
        clip-path: url(#clippath-13);
      }

      .cls-28 {
        clip-path: url(#clippath-37);
      }

      .cls-29 {
        clip-path: url(#clippath-25);
      }

      .cls-30 {
        clip-path: url(#clippath-15);
      }

      .cls-7 {
        fill: #d8cfd0;
      }

      .cls-31 {
        clip-path: url(#clippath-6);
      }

      .cls-32 {
        clip-path: url(#clippath-40);
      }

      .cls-33 {
        clip-path: url(#clippath-26);
      }

      .cls-8 {
        fill: #f9f19a;
      }

      .cls-21 {
        stroke: #1d1d1b;
      }

      .cls-34 {
        clip-path: url(#clippath-7);
      }

      .cls-35 {
        clip-path: url(#clippath-21);
      }

      .cls-36 {
        clip-path: url(#clippath-34);
      }

      .cls-37 {
        clip-path: url(#clippath-1);
      }

      .cls-38 {
        clip-path: url(#clippath-4);
      }

      .cls-39 {
        clip-path: url(#clippath-38);
      }

      .cls-40 {
        clip-path: url(#clippath-36);
      }

      .cls-41 {
        clip-path: url(#clippath-27);
      }

      .cls-11, .cls-13 {
        fill: #3d3c3b;
      }

      .cls-12 {
        fill: #b8d9b0;
      }

      .cls-42 {
        clip-path: url(#clippath-12);
      }

      .cls-43 {
        clip-path: url(#clippath-24);
      }

      .cls-44 {
        clip-path: url(#clippath-30);
      }

      .cls-45 {
        clip-path: url(#clippath-22);
      }

      .cls-14 {
        fill: #eebcbd;
      }

      .cls-15 {
        fill: #878787;
      }

      .cls-46 {
        clip-path: url(#clippath-9);
      }

      .cls-47 {
        clip-path: url(#clippath);
      }

      .cls-48 {
        clip-path: url(#clippath-39);
      }

      .cls-49 {
        fill: #bab1b2;
        font-size: 25px;
      }

      .cls-49, .cls-50 {
        font-family: ArialMT, Arial;
      }

      .cls-51 {
        clip-path: url(#clippath-19);
      }

      .cls-52 {
        clip-path: url(#clippath-31);
      }

      .cls-53 {
        clip-path: url(#clippath-3);
      }

      .cls-54 {
        clip-path: url(#clippath-43);
      }

      .cls-22 {
        stroke: #1e1e1c;
      }

      .cls-55 {
        clip-path: url(#clippath-8);
      }

      .cls-56 {
        clip-path: url(#clippath-29);
      }

      .cls-57 {
        clip-path: url(#clippath-18);
      }

      .cls-58 {
        clip-path: url(#clippath-14);
      }

      .cls-59 {
        clip-path: url(#clippath-17);
      }

      .cls-60 {
        clip-path: url(#clippath-5);
      }

      .cls-61 {
        clip-path: url(#clippath-42);
      }

      .cls-50 {
        font-size: 20px;
      }

      .cls-62 {
        clip-path: url(#clippath-10);
      }

      .cls-63 {
        clip-path: url(#clippath-23);
      }

      .cls-64 {
        clip-path: url(#clippath-28);
      }

      .cls-65 {
        clip-path: url(#clippath-35);
      }
    </style>
    <clipPath id="clippath">
      <rect class="cls-9" x="220" y="70" width="160" height="160"/>
    </clipPath>
    <clipPath id="clippath-1">
      <rect class="cls-9" x="220" y="70" width="160" height="160"/>
    </clipPath>
    <clipPath id="clippath-2">
      <rect class="cls-9" x="220" y="70" width="160" height="160"/>
    </clipPath>
    <clipPath id="clippath-3">
      <rect class="cls-9" x="220" y="70" width="160" height="160"/>
    </clipPath>
    <clipPath id="clippath-4">
      <rect class="cls-9" x="220" y="527" width="160" height="160"/>
    </clipPath>
    <clipPath id="clippath-5">
      <rect class="cls-9" x="220" y="527" width="160" height="160"/>
    </clipPath>
    <clipPath id="clippath-6">
      <rect class="cls-9" x="220" y="527" width="160" height="160"/>
    </clipPath>
    <clipPath id="clippath-7">
      <rect class="cls-9" x="220" y="527" width="160" height="160"/>
    </clipPath>
    <clipPath id="clippath-8">
      <rect class="cls-9" x="30" y="337" width="160" height="160"/>
    </clipPath>
    <clipPath id="clippath-9">
      <rect class="cls-9" x="30" y="337" width="160" height="160"/>
    </clipPath>
    <clipPath id="clippath-10">
      <rect class="cls-9" x="30" y="337" width="160" height="160"/>
    </clipPath>
    <clipPath id="clippath-11">
      <rect class="cls-9" x="30" y="337" width="160" height="160"/>
    </clipPath>
    <clipPath id="clippath-12">
      <rect class="cls-9" x="30" y="527" width="160" height="160"/>
    </clipPath>
    <clipPath id="clippath-13">
      <rect class="cls-9" x="30" y="527" width="160" height="160"/>
    </clipPath>
    <clipPath id="clippath-14">
      <rect class="cls-9" x="30" y="527" width="160" height="160"/>
    </clipPath>
    <clipPath id="clippath-15">
      <rect class="cls-9" x="30" y="527" width="160" height="160"/>
    </clipPath>
    <clipPath id="clippath-16">
      <rect class="cls-9" x="410" y="337" width="160" height="160"/>
    </clipPath>
    <clipPath id="clippath-17">
      <rect class="cls-9" x="410" y="337" width="160" height="160"/>
    </clipPath>
    <clipPath id="clippath-18">
      <rect class="cls-9" x="410" y="337" width="160" height="160"/>
    </clipPath>
    <clipPath id="clippath-19">
      <rect class="cls-9" x="410" y="337" width="160" height="160"/>
    </clipPath>
    <clipPath id="clippath-20">
      <rect class="cls-9" x="410" y="527" width="160" height="160"/>
    </clipPath>
    <clipPath id="clippath-21">
      <rect class="cls-9" x="410" y="527" width="160" height="160"/>
    </clipPath>
    <clipPath id="clippath-22">
      <rect class="cls-9" x="410" y="527" width="160" height="160"/>
    </clipPath>
    <clipPath id="clippath-23">
      <rect class="cls-9" x="410" y="527" width="160" height="160"/>
    </clipPath>
    <clipPath id="clippath-24">
      <rect class="cls-9" x="220" y="337" width="160" height="160"/>
    </clipPath>
    <clipPath id="clippath-25">
      <rect class="cls-9" x="220" y="337" width="160" height="160"/>
    </clipPath>
    <clipPath id="clippath-26">
      <rect class="cls-9" x="220" y="337" width="160" height="160"/>
    </clipPath>
    <clipPath id="clippath-27">
      <rect class="cls-9" x="220" y="337" width="160" height="160"/>
    </clipPath>
    <clipPath id="clippath-28">
      <rect class="cls-9" x="220" y="337" width="160" height="160"/>
    </clipPath>
    <clipPath id="clippath-29">
      <rect class="cls-9" x="220" y="337" width="160" height="160"/>
    </clipPath>
    <clipPath id="clippath-30">
      <rect class="cls-9" x="220" y="337" width="160" height="160"/>
    </clipPath>
    <clipPath id="clippath-31">
      <rect class="cls-9" x="220" y="337" width="160" height="160"/>
    </clipPath>
    <clipPath id="clippath-32">
      <rect class="cls-9" x="220" y="337" width="160" height="160"/>
    </clipPath>
    <clipPath id="clippath-33">
      <rect class="cls-9" x="220" y="337" width="160" height="160"/>
    </clipPath>
    <clipPath id="clippath-34">
      <rect class="cls-9" x="30" y="834" width="160" height="160"/>
    </clipPath>
    <clipPath id="clippath-35">
      <rect class="cls-9" x="30" y="834" width="160" height="160"/>
    </clipPath>
    <clipPath id="clippath-36">
      <rect class="cls-9" x="30" y="834" width="160" height="160"/>
    </clipPath>
    <clipPath id="clippath-37">
      <rect class="cls-9" x="30" y="834" width="160" height="160"/>
    </clipPath>
    <clipPath id="clippath-38">
      <rect class="cls-9" x="220" y="834" width="160" height="160"/>
    </clipPath>
    <clipPath id="clippath-39">
      <rect class="cls-9" x="220" y="834" width="160" height="160"/>
    </clipPath>
    <clipPath id="clippath-40">
      <rect class="cls-9" x="410" y="834" width="160" height="160"/>
    </clipPath>
    <clipPath id="clippath-41">
      <rect class="cls-9" x="410" y="834" width="160" height="160"/>
    </clipPath>
    <clipPath id="clippath-42">
      <rect class="cls-9" x="39.15" y="364.91" width="530" height="350"/>
    </clipPath>
    <clipPath id="clippath-43">
      <rect class="cls-9" x="39.15" y="364.91" width="530" height="350"/>
    </clipPath>
  </defs>
  <g id="Sfondo">
    <rect class="cls-10" width="600" height="1024"/>
  </g>
  <g id="IDLE">
    <g id="Status_Bar" data-name="Status Bar">
      <text class="cls-49" transform="translate(8.08 27.56)"><tspan x="0" y="0">20/12/1988</tspan></text>
      <text class="cls-49" transform="translate(531.33 27.56)"><tspan x="0" y="0">22:36</tspan></text>
      <text class="cls-49" transform="translate(197.33 27.56)"><tspan x="0" y="0">IFO San Gallicano</tspan></text>
    </g>
    <g id="ShutDown">
      <g id="ShutDownPressed">
        <g class="cls-47">
          <g class="cls-37">
            <path class="cls-1" d="m295.65,74.87c0-1.73,1.95-3.13,4.35-3.13s4.35,1.4,4.35,3.13v56.52c0,1.73-1.95,3.13-4.35,3.13s-4.35-1.4-4.35-3.13v-56.52Zm26.11,21.91c-2.25-.83-3.41-3.32-2.58-5.57.82-2.25,3.32-3.41,5.57-2.58,13.96,5.11,25.91,14.44,34.29,26.45,8.16,11.69,12.95,25.88,12.95,41.17,0,19.88-8.06,37.88-21.09,50.91-13.03,13.03-31.03,21.09-50.91,21.09s-37.88-8.06-50.91-21.09c-13.03-13.03-21.09-31.03-21.09-50.91,0-15.29,4.79-29.49,12.95-41.17,8.39-12.01,20.33-21.34,34.29-26.45,2.25-.82,4.74.33,5.57,2.58.82,2.25-.33,4.74-2.58,5.57-12.3,4.51-22.82,12.71-30.18,23.26-7.16,10.25-11.36,22.73-11.36,36.22,0,17.48,7.09,33.31,18.54,44.76,11.46,11.46,27.28,18.55,44.76,18.55s33.31-7.09,44.76-18.55c11.46-11.46,18.54-27.28,18.54-44.76,0-13.48-4.2-25.97-11.36-36.22-7.37-10.55-17.88-18.75-30.18-23.26"/>
          </g>
        </g>
      </g>
      <g id="ShutDown-2" data-name="ShutDown">
        <g class="cls-26">
          <g class="cls-53">
            <path class="cls-4" d="m295.65,74.87c0-1.73,1.95-3.13,4.35-3.13s4.35,1.4,4.35,3.13v56.52c0,1.73-1.95,3.13-4.35,3.13s-4.35-1.4-4.35-3.13v-56.52Zm26.11,21.91c-2.25-.83-3.41-3.32-2.58-5.57.82-2.25,3.32-3.41,5.57-2.58,13.96,5.11,25.91,14.44,34.29,26.45,8.16,11.69,12.95,25.88,12.95,41.17,0,19.88-8.06,37.88-21.09,50.91-13.03,13.03-31.03,21.09-50.91,21.09s-37.88-8.06-50.91-21.09c-13.03-13.03-21.09-31.03-21.09-50.91,0-15.29,4.79-29.49,12.95-41.17,8.39-12.01,20.33-21.34,34.29-26.45,2.25-.82,4.74.33,5.57,2.58.82,2.25-.33,4.74-2.58,5.57-12.3,4.51-22.82,12.71-30.18,23.26-7.16,10.25-11.36,22.73-11.36,36.22,0,17.48,7.09,33.31,18.54,44.76,11.46,11.46,27.28,18.55,44.76,18.55s33.31-7.09,44.76-18.55c11.46-11.46,18.54-27.28,18.54-44.76,0-13.48-4.2-25.97-11.36-36.22-7.37-10.55-17.88-18.75-30.18-23.26"/>
          </g>
        </g>
      </g>
    </g>
    <g id="X-Rays">
      <g id="Door">
        <g id="Close">
          <g class="cls-38">
            <g class="cls-60">
              <path class="cls-12" d="m360,687h-120c-11.05,0-20-8.95-20-20v-120c0-11.05,8.95-20,20-20h120c11.05,0,20,8.95,20,20v120c0,11.05-8.95,20-20,20"/>
              <path class="cls-5" d="m248.99,663.95h4.64v-119.84c0-1.16.94-2.1,2.1-2.1h87.73c1.16,0,2.11.94,2.11,2.1v119.84h5.44v8.05h-102.03v-8.05Zm14.68-113.15h72.73v113.15h4.96v-117.16c0-.33-.26-.59-.59-.59h-82.35c-.33,0-.59.26-.59.59v117.16h4.96v-113.15h.88Zm6.21,54.31l4.47-1.28v16.73l-4.47-1.62v-13.83Z"/>
              <path class="cls-20" d="m248.99,663.95h4.64v-119.84c0-1.16.94-2.1,2.1-2.1h87.73c1.16,0,2.11.94,2.11,2.1v119.84h5.44v8.05h-102.03v-8.05Zm14.68-113.15h72.73v113.15h4.96v-117.16c0-.33-.26-.59-.59-.59h-82.35c-.33,0-.59.26-.59.59v117.16h4.96v-113.15h.88Zm6.21,54.31l4.47-1.28v16.73l-4.47-1.62v-13.83Z"/>
              <line class="cls-21" x1="261.54" y1="663.95" x2="341.37" y2="663.95"/>
            </g>
          </g>
        </g>
        <g id="Opened">
          <g class="cls-31">
            <g class="cls-34">
              <path class="cls-2" d="m360,687h-120c-11.05,0-20-8.95-20-20v-120c0-11.05,8.95-20,20-20h120c11.05,0,20,8.95,20,20v120c0,11.05-8.95,20-20,20"/>
              <path class="cls-5" d="m248.99,663.95h4.65v-119.84c0-1.16.94-2.1,2.1-2.1h87.74c1.16,0,2.11.94,2.11,2.1v119.84h5.44v8.05h-102.03v-8.05Zm14.68-113.15h72.73v111.85h4.96v-115.86c0-.33-.26-.59-.59-.59h-82.35c-.33,0-.59.26-.59.59v117.16h4.96v-113.15h.88Zm2.18,111.85h62.59l-.4-.16-29.37-4.01v-80.62l34.69-21.86v-2.16h-67.51v108.8Zm37.83-57.53l4.47-1.28v16.73l-4.47-1.62v-13.83Z"/>
              <path class="cls-20" d="m248.99,663.95h4.65v-119.84c0-1.16.94-2.1,2.1-2.1h87.74c1.16,0,2.11.94,2.11,2.1v119.84h5.44v8.05h-102.03v-8.05Zm14.68-113.15h72.73v111.85h4.96v-115.86c0-.33-.26-.59-.59-.59h-82.35c-.33,0-.59.26-.59.59v117.16h4.96v-113.15h.88Zm2.18,111.85h62.59l-.4-.16-29.37-4.01v-80.62l34.69-21.86v-2.16h-67.51v108.8Zm37.83-57.53l4.47-1.28v16.73l-4.47-1.62v-13.83Z"/>
            </g>
          </g>
        </g>
      </g>
      <g id="raysOK">
        <g class="cls-55">
          <g class="cls-46">
            <path class="cls-12" d="m170,497H50c-11.05,0-20-8.95-20-20v-120c0-11.05,8.95-20,20-20h120c11.05,0,20,8.95,20,20v120c0,11.05-8.95,20-20,20"/>
            <path class="cls-5" d="m136.73,462.95c-17.54,8.98-35.2,9.22-52.98-.02l19.03-32.43c4.33,2.57,9.4,2.59,15.22.01l18.73,32.44Zm-26.73-110.95c17.95,0,34.2,7.28,45.96,19.04,11.76,11.76,19.04,28.01,19.04,45.96s-7.28,34.2-19.04,45.96c-11.76,11.76-28.01,19.04-45.96,19.04s-34.2-7.28-45.96-19.04c-11.76-11.75-19.04-28-19.04-45.96s7.28-34.2,19.04-45.96c11.75-11.76,28-19.04,45.96-19.04m42.41,22.59c-10.85-10.85-25.85-17.57-42.41-17.57s-31.56,6.72-42.41,17.57c-10.85,10.86-17.57,25.85-17.57,42.41s6.72,31.56,17.57,42.41c10.85,10.85,25.85,17.57,42.41,17.57s31.56-6.72,42.41-17.57c10.85-10.85,17.57-25.84,17.57-42.41s-6.72-31.56-17.57-42.41m-15.95-3.83c16.55,10.7,25.59,25.87,26.47,45.89l-37.61-.26c.06-5.04-2.45-9.44-7.6-13.18l18.74-32.45Zm-26.4,36.69c5.64,0,10.21,4.57,10.21,10.21s-4.57,10.21-10.21,10.21-10.21-4.57-10.21-10.21,4.57-10.21,10.21-10.21m-52.86,9.44c.98-19.68,9.61-35.09,26.51-45.87l18.58,32.7c-4.39,2.47-6.94,6.85-7.62,13.17h-37.47Z"/>
            <path class="cls-20" d="m136.73,462.95c-17.54,8.98-35.2,9.22-52.98-.02l19.03-32.43c4.33,2.57,9.4,2.59,15.22.01l18.73,32.44Zm-26.73-110.95c17.95,0,34.2,7.28,45.96,19.04,11.76,11.76,19.04,28.01,19.04,45.96s-7.28,34.2-19.04,45.96c-11.76,11.76-28.01,19.04-45.96,19.04s-34.2-7.28-45.96-19.04c-11.76-11.75-19.04-28-19.04-45.96s7.28-34.2,19.04-45.96c11.75-11.76,28-19.04,45.96-19.04Zm42.41,22.59c-10.85-10.85-25.85-17.57-42.41-17.57s-31.56,6.72-42.41,17.57c-10.85,10.86-17.57,25.85-17.57,42.41s6.72,31.56,17.57,42.41c10.85,10.85,25.85,17.57,42.41,17.57s31.56-6.72,42.41-17.57c10.85-10.85,17.57-25.84,17.57-42.41s-6.72-31.56-17.57-42.41Zm-15.95-3.83c16.55,10.7,25.59,25.87,26.47,45.89l-37.61-.26c.06-5.04-2.45-9.44-7.6-13.18l18.74-32.45Zm-26.4,36.69c5.64,0,10.21,4.57,10.21,10.21s-4.57,10.21-10.21,10.21-10.21-4.57-10.21-10.21,4.57-10.21,10.21-10.21Zm-52.86,9.44c.98-19.68,9.61-35.09,26.51-45.87l18.58,32.7c-4.39,2.47-6.94,6.85-7.62,13.17h-37.47Z"/>
          </g>
        </g>
      </g>
      <g id="demo">
        <g class="cls-62">
          <g class="cls-17">
            <path class="cls-15" d="m170,497H50c-11.05,0-20-8.95-20-20v-120c0-11.05,8.95-20,20-20h120c11.05,0,20,8.95,20,20v120c0,11.05-8.95,20-20,20"/>
            <path class="cls-5" d="m61.6,419.75h96.8c4.18,0,7.6,3.18,7.6,7.04v48.16c0,3.85-3.44,7.05-7.6,7.05H61.6c-4.17,0-7.6-3.17-7.6-7.05v-48.16c0-3.88,3.42-7.04,7.6-7.04m9.26,18.13h5.45c3.52,0,5.91.15,7.15.45,1.24.3,2.19.79,2.84,1.47.65.68,1.06,1.45,1.21,2.29.16.84.24,2.49.24,4.95v9.11c0,2.33-.12,3.88-.36,4.67-.24.78-.65,1.4-1.24,1.84-.58.45-1.31.75-2.18.94-.87.18-2.17.26-3.92.26h-9.18v-25.97Zm7.28,4.44v17.09c1.06,0,1.7-.19,1.94-.58.25-.39.36-1.44.36-3.19v-10.09c0-1.17-.04-1.93-.11-2.26-.09-.33-.26-.57-.56-.73-.3-.16-.84-.24-1.64-.24m12.93-4.44h12.16v5.2h-4.87v4.92h4.56v4.95h-4.56v5.72h5.35v5.19h-12.64v-25.99Zm37.86,0v25.98h-6.37v-17.54l-2.54,17.54h-4.52l-2.69-17.14v17.14h-6.37v-25.98h9.44c.28,1.56.57,3.41.88,5.53l1,6.61,1.67-12.14h9.5Zm20.2,15.21c0,2.61-.06,4.46-.19,5.54-.14,1.09-.55,2.08-1.24,2.98-.7.9-1.64,1.59-2.83,2.07-1.19.48-2.58.73-4.16.73s-2.85-.23-4.05-.68c-1.2-.46-2.16-1.13-2.89-2.04-.73-.91-1.17-1.9-1.3-2.97-.14-1.07-.21-2.94-.21-5.63v-4.44c0-2.61.06-4.46.21-5.56.13-1.08.54-2.08,1.24-2.97.7-.9,1.64-1.59,2.84-2.07,1.18-.48,2.57-.73,4.16-.73,1.5,0,2.84.23,4.04.68,1.19.46,2.16,1.14,2.89,2.04.72.91,1.16,1.9,1.29,2.97.14,1.06.21,2.94.21,5.62v4.44Zm-7.28-8.53c0-1.22-.07-1.98-.22-2.32-.14-.34-.44-.51-.89-.51-.38,0-.67.13-.88.41-.21.27-.31,1.07-.31,2.42v12.12c0,1.52.06,2.45.2,2.8.14.36.45.52.93.52s.81-.19.96-.61c.14-.41.21-1.38.21-2.91v-11.92Z"/>
            <path class="cls-20" d="m61.6,419.75h96.8c4.18,0,7.6,3.18,7.6,7.04v48.16c0,3.85-3.44,7.05-7.6,7.05H61.6c-4.17,0-7.6-3.17-7.6-7.05v-48.16c0-3.88,3.42-7.04,7.6-7.04Zm9.26,18.13h5.45c3.52,0,5.91.15,7.15.45,1.24.3,2.19.79,2.84,1.47.65.68,1.06,1.45,1.21,2.29.16.84.24,2.49.24,4.95v9.11c0,2.33-.12,3.88-.36,4.67-.24.78-.65,1.4-1.24,1.84-.58.45-1.31.75-2.18.94-.87.18-2.17.26-3.92.26h-9.18v-25.97Zm7.28,4.44v17.09c1.06,0,1.7-.19,1.94-.58.25-.39.36-1.44.36-3.19v-10.09c0-1.17-.04-1.93-.11-2.26-.09-.33-.26-.57-.56-.73-.3-.16-.84-.24-1.64-.24Zm12.93-4.44h12.16v5.2h-4.87v4.92h4.56v4.95h-4.56v5.72h5.35v5.19h-12.64v-25.99Zm37.86,0v25.98h-6.37v-17.54l-2.54,17.54h-4.52l-2.69-17.14v17.14h-6.37v-25.98h9.44c.28,1.56.57,3.41.88,5.53l1,6.61,1.67-12.14h9.5Zm20.2,15.21c0,2.61-.06,4.46-.19,5.54-.14,1.09-.55,2.08-1.24,2.98-.7.9-1.64,1.59-2.83,2.07-1.19.48-2.58.73-4.16.73s-2.85-.23-4.05-.68c-1.2-.46-2.16-1.13-2.89-2.04-.73-.91-1.17-1.9-1.3-2.97-.14-1.07-.21-2.94-.21-5.63v-4.44c0-2.61.06-4.46.21-5.56.13-1.08.54-2.08,1.24-2.97.7-.9,1.64-1.59,2.84-2.07,1.18-.48,2.57-.73,4.16-.73,1.5,0,2.84.23,4.04.68,1.19.46,2.16,1.14,2.89,2.04.72.91,1.16,1.9,1.29,2.97.14,1.06.21,2.94.21,5.62v4.44Zm-7.28-8.53c0-1.22-.07-1.98-.22-2.32-.14-.34-.44-.51-.89-.51-.38,0-.67.13-.88.41-.21.27-.31,1.07-.31,2.42v12.12c0,1.52.06,2.45.2,2.8.14.36.45.52.93.52s.81-.19.96-.61c.14-.41.21-1.38.21-2.91v-11.92Z"/>
            <path class="cls-5" d="m122.33,403.15c-8.09,4.14-16.23,4.25-24.43,0l8.77-14.95c2,1.19,4.34,1.19,7.02,0l8.63,14.95Zm-12.32-51.15c8.28,0,15.77,3.36,21.19,8.78,5.42,5.42,8.78,12.92,8.78,21.19s-3.36,15.77-8.78,21.19c-5.42,5.42-12.92,8.78-21.19,8.78s-15.77-3.36-21.19-8.78c-5.42-5.42-8.78-12.91-8.78-21.19s3.36-15.77,8.78-21.19c5.42-5.42,12.91-8.78,21.19-8.78m19.55,10.41c-5-5.01-11.92-8.1-19.55-8.1s-14.55,3.1-19.55,8.1c-5,5-8.1,11.91-8.1,19.55s3.1,14.55,8.1,19.55,11.92,8.1,19.55,8.1,14.55-3.1,19.55-8.1c5-5,8.1-11.92,8.1-19.55s-3.1-14.55-8.1-19.55m-7.36-1.77c7.63,4.93,11.8,11.93,12.2,21.16l-17.34-.12c.03-2.32-1.13-4.35-3.5-6.08l8.64-14.96Zm-12.17,16.92c2.6,0,4.71,2.11,4.71,4.71s-2.11,4.71-4.71,4.71-4.71-2.11-4.71-4.71,2.11-4.71,4.71-4.71m-24.37,4.35c.45-9.07,4.43-16.18,12.22-21.15l8.57,15.08c-2.02,1.14-3.2,3.16-3.51,6.07h-17.28Z"/>
            <path class="cls-20" d="m122.33,403.15c-8.09,4.14-16.23,4.25-24.43,0l8.77-14.95c2,1.19,4.34,1.19,7.02,0l8.63,14.95Zm-12.32-51.15c8.28,0,15.77,3.36,21.19,8.78,5.42,5.42,8.78,12.92,8.78,21.19s-3.36,15.77-8.78,21.19c-5.42,5.42-12.92,8.78-21.19,8.78s-15.77-3.36-21.19-8.78c-5.42-5.42-8.78-12.91-8.78-21.19s3.36-15.77,8.78-21.19c5.42-5.42,12.91-8.78,21.19-8.78Zm19.55,10.41c-5-5.01-11.92-8.1-19.55-8.1s-14.55,3.1-19.55,8.1c-5,5-8.1,11.91-8.1,19.55s3.1,14.55,8.1,19.55,11.92,8.1,19.55,8.1,14.55-3.1,19.55-8.1c5-5,8.1-11.92,8.1-19.55s-3.1-14.55-8.1-19.55Zm-7.36-1.77c7.63,4.93,11.8,11.93,12.2,21.16l-17.34-.12c.03-2.32-1.13-4.35-3.5-6.08l8.64-14.96Zm-12.17,16.92c2.6,0,4.71,2.11,4.71,4.71s-2.11,4.71-4.71,4.71-4.71-2.11-4.71-4.71,2.11-4.71,4.71-4.71Zm-24.37,4.35c.45-9.07,4.43-16.18,12.22-21.15l8.57,15.08c-2.02,1.14-3.2,3.16-3.51,6.07h-17.28Z"/>
          </g>
        </g>
      </g>
    </g>
    <g id="Peripherals">
      <g id="ok">
        <g class="cls-42">
          <g class="cls-27">
            <path class="cls-12" d="m170,687H50c-11.05,0-20-8.95-20-20v-120c0-11.05,8.95-20,20-20h120c11.05,0,20,8.95,20,20v120c0,11.05-8.95,20-20,20"/>
            <path class="cls-10" d="m75.57,564.04h68.78c4.9.02,8.87,3.99,8.88,8.89v68.54c-.02,2.35-.96,4.59-2.62,6.24-1.66,1.67-3.91,2.61-6.26,2.61h-68.78c-4.9-.02-8.87-3.99-8.89-8.89v-68.51c.02-2.36.98-4.61,2.67-6.26,1.66-1.67,3.91-2.61,6.26-2.61h-.03Zm17.54,17.66h33.67c4.68,0,8.47,3.79,8.47,8.46v34.07c0,4.67-3.79,8.47-8.47,8.47h-33.67c-4.67,0-8.47-3.79-8.47-8.47v-34.09c0-4.68,3.79-8.46,8.47-8.46v.02Zm49.11,54.65c0,1.72-1.38,3.12-3.1,3.12-1.72,0-3.12-1.38-3.12-3.1,0-1.72,1.38-3.12,3.1-3.12h.01c1.71,0,3.11,1.39,3.11,3.1m-58.33-58.36c0,1.72-1.38,3.11-3.1,3.12-1.72,0-3.11-1.38-3.12-3.1,0-1.72,1.38-3.12,3.1-3.12h.01c1.71,0,3.1,1.39,3.11,3.1m55.22-3.07c1.72,0,3.11,1.39,3.11,3.11s-1.39,3.11-3.11,3.11-3.11-1.39-3.11-3.11c0-.01,0-.03,0-.04,0-1.71,1.39-3.1,3.1-3.1v.03Zm-58.33,58.33c1.72,0,3.11,1.38,3.12,3.1,0,1.72-1.38,3.12-3.1,3.12-1.72,0-3.12-1.38-3.12-3.1v-.02c0-1.71,1.39-3.09,3.1-3.1m.74,24.08v14.67h-5.47v-14.65h5.47Zm12.63,0v14.67h-5.47v-14.65h5.47Zm12.62,0v14.67h-5.47v-14.65h5.47Zm12.63,0v14.67h-5.47v-14.65h5.47Zm12.62,0v14.67h-5.47v-14.65h5.47Zm12.63,0v14.67h-5.49v-14.65h5.49Zm-63.15-100.66h-5.47v-14.67h5.47v14.67Zm12.63,0h-5.47v-14.67h5.47v14.67Zm12.62,0h-5.47v-14.67h5.47v14.67Zm12.63,0h-5.47v-14.67h5.47v14.67Zm12.62,0h-5.47v-14.67h5.47v14.67Zm12.63,0h-5.49v-14.67h5.49v14.67Zm15.67,79.31h14.67v5.49h-14.67v-5.49Zm0-12.63h14.67v5.43h-14.67v-5.43Zm0-12.62h14.67v5.47h-14.67v-5.47Zm0-12.63h14.67v5.47h-14.67v-5.47Zm0-12.62h14.67v5.47h-14.67v-5.47Zm0-12.63h14.67v5.47h-14.67v-5.47Zm-115.33,63.15h14.67v5.49h-14.67v-5.49Zm0-12.63h14.67v5.43h-14.67v-5.43Zm0-12.62h14.67v5.47h-14.67v-5.47Zm0-12.63h14.67v5.47h-14.67v-5.47Zm0-12.62h14.67v5.47h-14.67v-5.47Zm0-12.63h14.67v5.47h-14.67v-5.47Zm99.32-4.53h-68.78c-1.22,0-2.4.48-3.27,1.34-.87.87-1.35,2.04-1.34,3.27v68.56c0,2.55,2.07,4.62,4.62,4.63h68.78c1.24,0,2.43-.5,3.3-1.39.85-.87,1.32-2.03,1.31-3.25v-68.54c-.01-2.55-2.07-4.61-4.62-4.62"/>
            <path class="cls-20" d="m75.57,564.04h68.78c4.9.02,8.87,3.99,8.88,8.89v68.54c-.02,2.35-.96,4.59-2.62,6.24-1.66,1.67-3.91,2.61-6.26,2.61h-68.78c-4.9-.02-8.87-3.99-8.89-8.89v-68.51c.02-2.36.98-4.61,2.67-6.26,1.66-1.67,3.91-2.61,6.26-2.61h-.03Zm17.54,17.66h33.67c4.68,0,8.47,3.79,8.47,8.46v34.07c0,4.67-3.79,8.47-8.47,8.47h-33.67c-4.67,0-8.47-3.79-8.47-8.47v-34.09c0-4.68,3.79-8.46,8.47-8.46v.02Zm49.11,54.65c0,1.72-1.38,3.12-3.1,3.12-1.72,0-3.12-1.38-3.12-3.1,0-1.72,1.38-3.12,3.1-3.12h.01c1.71,0,3.11,1.39,3.11,3.1Zm-58.33-58.36c0,1.72-1.38,3.11-3.1,3.12-1.72,0-3.11-1.38-3.12-3.1,0-1.72,1.38-3.12,3.1-3.12h.01c1.71,0,3.1,1.39,3.11,3.1Zm55.22-3.07c1.72,0,3.11,1.39,3.11,3.11s-1.39,3.11-3.11,3.11-3.11-1.39-3.11-3.11c0-.01,0-.03,0-.04,0-1.71,1.39-3.1,3.1-3.1v.03Zm-58.33,58.33c1.72,0,3.11,1.38,3.12,3.1,0,1.72-1.38,3.12-3.1,3.12-1.72,0-3.12-1.38-3.12-3.1v-.02c0-1.71,1.39-3.09,3.1-3.1Zm.74,24.08v14.67h-5.47v-14.65h5.47Zm12.63,0v14.67h-5.47v-14.65h5.47Zm12.62,0v14.67h-5.47v-14.65h5.47Zm12.63,0v14.67h-5.47v-14.65h5.47Zm12.62,0v14.67h-5.47v-14.65h5.47Zm12.63,0v14.67h-5.49v-14.65h5.49Zm-63.15-100.66h-5.47v-14.67h5.47v14.67Zm12.63,0h-5.47v-14.67h5.47v14.67Zm12.62,0h-5.47v-14.67h5.47v14.67Zm12.63,0h-5.47v-14.67h5.47v14.67Zm12.62,0h-5.47v-14.67h5.47v14.67Zm12.63,0h-5.49v-14.67h5.49v14.67Zm15.67,79.31h14.67v5.49h-14.67v-5.49Zm0-12.63h14.67v5.43h-14.67v-5.43Zm0-12.62h14.67v5.47h-14.67v-5.47Zm0-12.63h14.67v5.47h-14.67v-5.47Zm0-12.62h14.67v5.47h-14.67v-5.47Zm0-12.63h14.67v5.47h-14.67v-5.47Zm-115.33,63.15h14.67v5.49h-14.67v-5.49Zm0-12.63h14.67v5.43h-14.67v-5.43Zm0-12.62h14.67v5.47h-14.67v-5.47Zm0-12.63h14.67v5.47h-14.67v-5.47Zm0-12.62h14.67v5.47h-14.67v-5.47Zm0-12.63h14.67v5.47h-14.67v-5.47Zm99.32-4.53h-68.78c-1.22,0-2.4.48-3.27,1.34-.87.87-1.35,2.04-1.34,3.27v68.56c0,2.55,2.07,4.62,4.62,4.63h68.78c1.24,0,2.43-.5,3.3-1.39.85-.87,1.32-2.03,1.31-3.25v-68.54c-.01-2.55-2.07-4.61-4.62-4.62Z"/>
          </g>
        </g>
      </g>
      <g id="nok">
        <g class="cls-58">
          <g class="cls-30">
            <path class="cls-2" d="m170,687H50c-11.05,0-20-8.95-20-20v-120c0-11.05,8.95-20,20-20h120c11.05,0,20,8.95,20,20v120c0,11.05-8.95,20-20,20"/>
            <path class="cls-10" d="m75.57,564.04h68.78c4.9.02,8.87,3.99,8.88,8.89v68.54c-.02,2.35-.96,4.59-2.62,6.24-1.66,1.67-3.91,2.61-6.26,2.61h-68.78c-4.9-.02-8.87-3.99-8.89-8.89v-68.51c.02-2.36.98-4.61,2.67-6.26,1.66-1.67,3.91-2.61,6.26-2.61h-.03Zm17.54,17.66h33.67c4.68,0,8.47,3.79,8.47,8.46v34.07c0,4.67-3.79,8.47-8.47,8.47h-33.67c-4.67,0-8.47-3.79-8.47-8.47v-34.09c0-4.68,3.79-8.46,8.47-8.46v.02Zm49.11,54.65c0,1.72-1.38,3.12-3.1,3.12-1.72,0-3.12-1.38-3.12-3.1,0-1.72,1.38-3.12,3.1-3.12h.01c1.71,0,3.11,1.39,3.11,3.1m-58.33-58.36c0,1.72-1.38,3.11-3.1,3.12-1.72,0-3.11-1.38-3.12-3.1,0-1.72,1.38-3.12,3.1-3.12h.01c1.71,0,3.1,1.39,3.11,3.1m55.22-3.07c1.72,0,3.11,1.39,3.11,3.11s-1.39,3.11-3.11,3.11-3.11-1.39-3.11-3.11c0-.01,0-.03,0-.04,0-1.71,1.39-3.1,3.1-3.1v.03Zm-58.33,58.33c1.72,0,3.11,1.38,3.12,3.1,0,1.72-1.38,3.12-3.1,3.12-1.72,0-3.12-1.38-3.12-3.1v-.02c0-1.71,1.39-3.09,3.1-3.1m.74,24.08v14.67h-5.47v-14.65h5.47Zm12.63,0v14.67h-5.47v-14.65h5.47Zm12.62,0v14.67h-5.47v-14.65h5.47Zm12.63,0v14.67h-5.47v-14.65h5.47Zm12.62,0v14.67h-5.47v-14.65h5.47Zm12.63,0v14.67h-5.49v-14.65h5.49Zm-63.15-100.66h-5.47v-14.67h5.47v14.67Zm12.63,0h-5.47v-14.67h5.47v14.67Zm12.62,0h-5.47v-14.67h5.47v14.67Zm12.63,0h-5.47v-14.67h5.47v14.67Zm12.62,0h-5.47v-14.67h5.47v14.67Zm12.63,0h-5.49v-14.67h5.49v14.67Zm15.67,79.31h14.67v5.49h-14.67v-5.49Zm0-12.63h14.67v5.43h-14.67v-5.43Zm0-12.62h14.67v5.47h-14.67v-5.47Zm0-12.63h14.67v5.47h-14.67v-5.47Zm0-12.62h14.67v5.47h-14.67v-5.47Zm0-12.63h14.67v5.47h-14.67v-5.47Zm-115.33,63.15h14.67v5.49h-14.67v-5.49Zm0-12.63h14.67v5.43h-14.67v-5.43Zm0-12.62h14.67v5.47h-14.67v-5.47Zm0-12.63h14.67v5.47h-14.67v-5.47Zm0-12.62h14.67v5.47h-14.67v-5.47Zm0-12.63h14.67v5.47h-14.67v-5.47Zm99.32-4.53h-68.78c-1.22,0-2.4.48-3.27,1.34-.87.87-1.35,2.04-1.34,3.27v68.56c0,2.55,2.07,4.62,4.62,4.63h68.78c1.24,0,2.43-.5,3.3-1.39.85-.87,1.32-2.03,1.31-3.25v-68.54c-.01-2.55-2.07-4.61-4.62-4.62"/>
            <path class="cls-20" d="m75.57,564.04h68.78c4.9.02,8.87,3.99,8.88,8.89v68.54c-.02,2.35-.96,4.59-2.62,6.24-1.66,1.67-3.91,2.61-6.26,2.61h-68.78c-4.9-.02-8.87-3.99-8.89-8.89v-68.51c.02-2.36.98-4.61,2.67-6.26,1.66-1.67,3.91-2.61,6.26-2.61h-.03Zm17.54,17.66h33.67c4.68,0,8.47,3.79,8.47,8.46v34.07c0,4.67-3.79,8.47-8.47,8.47h-33.67c-4.67,0-8.47-3.79-8.47-8.47v-34.09c0-4.68,3.79-8.46,8.47-8.46v.02Zm49.11,54.65c0,1.72-1.38,3.12-3.1,3.12-1.72,0-3.12-1.38-3.12-3.1,0-1.72,1.38-3.12,3.1-3.12h.01c1.71,0,3.11,1.39,3.11,3.1Zm-58.33-58.36c0,1.72-1.38,3.11-3.1,3.12-1.72,0-3.11-1.38-3.12-3.1,0-1.72,1.38-3.12,3.1-3.12h.01c1.71,0,3.1,1.39,3.11,3.1Zm55.22-3.07c1.72,0,3.11,1.39,3.11,3.11s-1.39,3.11-3.11,3.11-3.11-1.39-3.11-3.11c0-.01,0-.03,0-.04,0-1.71,1.39-3.1,3.1-3.1v.03Zm-58.33,58.33c1.72,0,3.11,1.38,3.12,3.1,0,1.72-1.38,3.12-3.1,3.12-1.72,0-3.12-1.38-3.12-3.1v-.02c0-1.71,1.39-3.09,3.1-3.1Zm.74,24.08v14.67h-5.47v-14.65h5.47Zm12.63,0v14.67h-5.47v-14.65h5.47Zm12.62,0v14.67h-5.47v-14.65h5.47Zm12.63,0v14.67h-5.47v-14.65h5.47Zm12.62,0v14.67h-5.47v-14.65h5.47Zm12.63,0v14.67h-5.49v-14.65h5.49Zm-63.15-100.66h-5.47v-14.67h5.47v14.67Zm12.63,0h-5.47v-14.67h5.47v14.67Zm12.62,0h-5.47v-14.67h5.47v14.67Zm12.63,0h-5.47v-14.67h5.47v14.67Zm12.62,0h-5.47v-14.67h5.47v14.67Zm12.63,0h-5.49v-14.67h5.49v14.67Zm15.67,79.31h14.67v5.49h-14.67v-5.49Zm0-12.63h14.67v5.43h-14.67v-5.43Zm0-12.62h14.67v5.47h-14.67v-5.47Zm0-12.63h14.67v5.47h-14.67v-5.47Zm0-12.62h14.67v5.47h-14.67v-5.47Zm0-12.63h14.67v5.47h-14.67v-5.47Zm-115.33,63.15h14.67v5.49h-14.67v-5.49Zm0-12.63h14.67v5.43h-14.67v-5.43Zm0-12.62h14.67v5.47h-14.67v-5.47Zm0-12.63h14.67v5.47h-14.67v-5.47Zm0-12.62h14.67v5.47h-14.67v-5.47Zm0-12.63h14.67v5.47h-14.67v-5.47Zm99.32-4.53h-68.78c-1.22,0-2.4.48-3.27,1.34-.87.87-1.35,2.04-1.34,3.27v68.56c0,2.55,2.07,4.62,4.62,4.63h68.78c1.24,0,2.43-.5,3.3-1.39.85-.87,1.32-2.03,1.31-3.25v-68.54c-.01-2.55-2.07-4.61-4.62-4.62Z"/>
          </g>
        </g>
      </g>
    </g>
    <g id="AWSconnection">
      <g class="cls-18">
        <g class="cls-59">
          <path class="cls-12" d="m550,497h-120c-11.05,0-20-8.95-20-20v-120c0-11.05,8.95-20,20-20h120c11.05,0,20,8.95,20,20v120c0,11.05-8.95,20-20,20"/>
          <path class="cls-5" d="m427.68,449.59c-1.48,0-2.68-1.2-2.68-2.68s1.2-2.68,2.68-2.68h18.11c.47-1.56,1.31-2.95,2.43-4.07,1.15-1.15,2.58-2.01,4.19-2.47v-8.9c0-1.48,1.19-2.68,2.68-2.68s2.68,1.19,2.68,2.68v8.9c1.61.46,3.04,1.32,4.19,2.47,1.12,1.12,1.97,2.51,2.43,4.07h51.45c.47-1.56,1.31-2.95,2.43-4.07,1.15-1.15,2.58-2.01,4.19-2.47v-8.9c0-1.48,1.19-2.68,2.68-2.68s2.68,1.19,2.68,2.68v8.9c1.61.46,3.04,1.32,4.19,2.47,1.12,1.12,1.97,2.51,2.43,4.07h17.88c1.48,0,2.68,1.2,2.68,2.68s-1.19,2.68-2.68,2.68h-17.81c-.46,1.65-1.32,3.13-2.51,4.31-1.76,1.76-4.19,2.85-6.87,2.85s-5.11-1.09-6.87-2.85c-1.17-1.17-2.05-2.66-2.51-4.31h-51.3c-.46,1.65-1.32,3.13-2.51,4.31-1.76,1.76-4.19,2.85-6.87,2.85s-5.11-1.09-6.87-2.85c-1.17-1.17-2.05-2.66-2.51-4.31h-18.04Zm73.42-72.33h50.69c.8,0,1.46.66,1.46,1.46v31.04c0,.8-.66,1.46-1.46,1.46h-50.69c-.81,0-1.46-.66-1.46-1.46v-31.04c0-.8.66-1.46,1.46-1.46m18.73,35.96h13.21c.03,2.29.97,4.34,3.52,5.95h-20.26c2.04-1.48,3.53-3.28,3.52-5.95m6.61-6.92c1.04,0,1.87.84,1.87,1.87s-.84,1.87-1.87,1.87-1.87-.84-1.87-1.87.83-1.87,1.87-1.87m-22.42-26.3h44.84c.71,0,1.29.58,1.29,1.29v22.55c0,.71-.58,1.29-1.29,1.29h-44.84c-.71,0-1.29-.58-1.29-1.29v-22.55c0-.71.58-1.29,1.29-1.29m-76.56-2.74h50.69c.8,0,1.46.66,1.46,1.46v31.04c0,.8-.66,1.46-1.46,1.46h-50.69c-.8,0-1.46-.66-1.46-1.46v-31.04c0-.8.66-1.46,1.46-1.46m18.74,35.96h13.22c.03,2.29.97,4.34,3.52,5.95h-20.27c2.04-1.48,3.53-3.28,3.53-5.95m6.6-6.92c1.04,0,1.87.84,1.87,1.87s-.84,1.87-1.87,1.87-1.87-.84-1.87-1.87.85-1.87,1.87-1.87m-22.42-26.3h44.84c.71,0,1.29.58,1.29,1.29v22.55c0,.71-.58,1.29-1.29,1.29h-44.84c-.71,0-1.29-.58-1.29-1.29v-22.55c.01-.71.58-1.29,1.29-1.29m27.79,63.96c-.78-.78-1.87-1.28-3.08-1.28s-2.29.49-3.08,1.28c-.78.78-1.28,1.87-1.28,3.08s.49,2.3,1.28,3.08c.78.78,1.87,1.28,3.08,1.28s2.3-.49,3.08-1.28c.78-.78,1.28-1.87,1.28-3.08s-.49-2.3-1.28-3.08m70.06,0c-.78-.78-1.87-1.28-3.08-1.28s-2.3.49-3.08,1.28c-.78.78-1.28,1.87-1.28,3.08s.49,2.3,1.28,3.08c.78.78,1.87,1.28,3.08,1.28s2.3-.49,3.08-1.28c.78-.78,1.28-1.87,1.28-3.08s-.49-2.3-1.28-3.08"/>
          <path class="cls-20" d="m427.68,449.59c-1.48,0-2.68-1.2-2.68-2.68s1.2-2.68,2.68-2.68h18.11c.47-1.56,1.31-2.95,2.43-4.07,1.15-1.15,2.58-2.01,4.19-2.47v-8.9c0-1.48,1.19-2.68,2.68-2.68s2.68,1.19,2.68,2.68v8.9c1.61.46,3.04,1.32,4.19,2.47,1.12,1.12,1.97,2.51,2.43,4.07h51.45c.47-1.56,1.31-2.95,2.43-4.07,1.15-1.15,2.58-2.01,4.19-2.47v-8.9c0-1.48,1.19-2.68,2.68-2.68s2.68,1.19,2.68,2.68v8.9c1.61.46,3.04,1.32,4.19,2.47,1.12,1.12,1.97,2.51,2.43,4.07h17.88c1.48,0,2.68,1.2,2.68,2.68s-1.19,2.68-2.68,2.68h-17.81c-.46,1.65-1.32,3.13-2.51,4.31-1.76,1.76-4.19,2.85-6.87,2.85s-5.11-1.09-6.87-2.85c-1.17-1.17-2.05-2.66-2.51-4.31h-51.3c-.46,1.65-1.32,3.13-2.51,4.31-1.76,1.76-4.19,2.85-6.87,2.85s-5.11-1.09-6.87-2.85c-1.17-1.17-2.05-2.66-2.51-4.31h-18.04Zm73.42-72.33h50.69c.8,0,1.46.66,1.46,1.46v31.04c0,.8-.66,1.46-1.46,1.46h-50.69c-.81,0-1.46-.66-1.46-1.46v-31.04c0-.8.66-1.46,1.46-1.46Zm18.73,35.96h13.21c.03,2.29.97,4.34,3.52,5.95h-20.26c2.04-1.48,3.53-3.28,3.52-5.95Zm6.61-6.92c1.04,0,1.87.84,1.87,1.87s-.84,1.87-1.87,1.87-1.87-.84-1.87-1.87.83-1.87,1.87-1.87Zm-22.42-26.3h44.84c.71,0,1.29.58,1.29,1.29v22.55c0,.71-.58,1.29-1.29,1.29h-44.84c-.71,0-1.29-.58-1.29-1.29v-22.55c0-.71.58-1.29,1.29-1.29Zm-76.56-2.74h50.69c.8,0,1.46.66,1.46,1.46v31.04c0,.8-.66,1.46-1.46,1.46h-50.69c-.8,0-1.46-.66-1.46-1.46v-31.04c0-.8.66-1.46,1.46-1.46Zm18.74,35.96h13.22c.03,2.29.97,4.34,3.52,5.95h-20.27c2.04-1.48,3.53-3.28,3.53-5.95Zm6.6-6.92c1.04,0,1.87.84,1.87,1.87s-.84,1.87-1.87,1.87-1.87-.84-1.87-1.87.85-1.87,1.87-1.87Zm-22.42-26.3h44.84c.71,0,1.29.58,1.29,1.29v22.55c0,.71-.58,1.29-1.29,1.29h-44.84c-.71,0-1.29-.58-1.29-1.29v-22.55c.01-.71.58-1.29,1.29-1.29Zm27.79,63.96c-.78-.78-1.87-1.28-3.08-1.28s-2.29.49-3.08,1.28c-.78.78-1.28,1.87-1.28,3.08s.49,2.3,1.28,3.08c.78.78,1.87,1.28,3.08,1.28s2.3-.49,3.08-1.28c.78-.78,1.28-1.87,1.28-3.08s-.49-2.3-1.28-3.08Zm70.06,0c-.78-.78-1.87-1.28-3.08-1.28s-2.3.49-3.08,1.28c-.78.78-1.28,1.87-1.28,3.08s.49,2.3,1.28,3.08c.78.78,1.87,1.28,3.08,1.28s2.3-.49,3.08-1.28c.78-.78,1.28-1.87,1.28-3.08s-.49-2.3-1.28-3.08Z"/>
        </g>
      </g>
      <g class="cls-57">
        <g class="cls-51">
          <path class="cls-2" d="m550,497h-120c-11.05,0-20-8.95-20-20v-120c0-11.05,8.95-20,20-20h120c11.05,0,20,8.95,20,20v120c0,11.05-8.95,20-20,20"/>
          <path class="cls-5" d="m500.95,377.33h50.6c.8,0,1.46.65,1.46,1.46v30.98c0,.8-.65,1.46-1.46,1.46h-50.6c-.8,0-1.46-.65-1.46-1.46v-30.98c0-.8.66-1.46,1.46-1.46m18.69,35.9h13.19c.03,2.28.97,4.33,3.52,5.93h-20.22c2.04-1.48,3.53-3.27,3.52-5.93m6.6-6.91c1.04,0,1.87.83,1.87,1.87s-.83,1.87-1.87,1.87-1.87-.83-1.87-1.87.83-1.87,1.87-1.87m-22.38-26.25h44.76c.71,0,1.29.58,1.29,1.29v22.5c0,.71-.58,1.29-1.29,1.29h-44.76c-.71,0-1.29-.58-1.29-1.29v-22.5c0-.71.58-1.29,1.29-1.29m-76.42-2.74h50.6c.8,0,1.46.65,1.46,1.46v30.98c0,.8-.65,1.46-1.46,1.46h-50.6c-.8,0-1.46-.65-1.46-1.46v-30.98c0-.8.65-1.46,1.46-1.46m18.7,35.9h13.19c.03,2.28.97,4.33,3.52,5.93h-20.23c2.04-1.48,3.53-3.27,3.53-5.93m6.59-6.91c1.03,0,1.87.83,1.87,1.87s-.83,1.87-1.87,1.87-1.87-.83-1.87-1.87.85-1.87,1.87-1.87m-22.38-26.25h44.76c.71,0,1.29.58,1.29,1.29v22.5c0,.71-.58,1.29-1.29,1.29h-44.76c-.71,0-1.29-.58-1.29-1.29v-22.5c.01-.71.58-1.29,1.29-1.29m27.74,63.84c-.78-.78-1.87-1.28-3.07-1.28s-2.29.49-3.07,1.28c-.78.78-1.28,1.87-1.28,3.07s.49,2.29,1.28,3.07c.78.78,1.87,1.28,3.07,1.28s2.29-.49,3.07-1.28c.78-.78,1.28-1.87,1.28-3.07s-.49-2.29-1.28-3.07m69.93,0c-.78-.78-1.87-1.28-3.07-1.28s-2.29.49-3.07,1.28c-.78.78-1.28,1.87-1.28,3.07s.49,2.29,1.28,3.07c.78.78,1.87,1.28,3.07,1.28s2.29-.49,3.07-1.28c.78-.78,1.28-1.87,1.28-3.07s-.49-2.29-1.28-3.07m-100.37,5.62c-1.48,0-2.67-1.19-2.67-2.67s1.19-2.67,2.67-2.67h18.08c.47-1.55,1.31-2.95,2.43-4.07,1.15-1.15,2.58-2.01,4.18-2.46v-8.88c0-1.48,1.19-2.67,2.67-2.67s2.67,1.19,2.67,2.67v8.88c1.61.45,3.03,1.32,4.18,2.46,1.12,1.12,1.96,2.5,2.43,4.07h17.53l.04,5.34h-17.5c-.45,1.65-1.32,3.13-2.5,4.3-1.75,1.75-4.18,2.84-6.85,2.84s-5.1-1.09-6.85-2.84c-1.17-1.17-2.05-2.65-2.5-4.3h-18.01Zm30.43-5.62c-.78-.78-1.87-1.28-3.07-1.28s-2.29.49-3.07,1.28c-.78.78-1.28,1.87-1.28,3.07s.49,2.29,1.28,3.07c.78.78,1.87,1.28,3.07,1.28s2.29-.49,3.07-1.28c.78-.78,1.28-1.87,1.28-3.07s-.49-2.29-1.28-3.07m0,0c-.78-.78-1.87-1.28-3.07-1.28s-2.29.49-3.07,1.28c-.78.78-1.28,1.87-1.28,3.07s.49,2.29,1.28,3.07c.78.78,1.87,1.28,3.07,1.28s2.29-.49,3.07-1.28c.78-.78,1.28-1.87,1.28-3.07s-.49-2.29-1.28-3.07m94.22,5.62h-18c-.46,1.65-1.33,3.13-2.5,4.3-1.75,1.75-4.18,2.84-6.85,2.84s-5.1-1.09-6.85-2.84c-1.18-1.17-2.05-2.65-2.5-4.3h-17.5l.04-5.34h17.53c.46-1.56,1.31-2.95,2.43-4.07,1.15-1.14,2.58-2.01,4.18-2.46v-8.88c0-1.48,1.19-2.67,2.67-2.67s2.67,1.19,2.67,2.67v8.88c1.6.45,3.03,1.31,4.18,2.46,1.12,1.12,1.96,2.51,2.43,4.07h18.08c1.48,0,2.67,1.19,2.67,2.67s-1.19,2.67-2.67,2.67m-30.43-5.62c-.79.78-1.28,1.87-1.28,3.07s.5,2.29,1.28,3.07c.78.79,1.87,1.28,3.07,1.28s2.29-.5,3.07-1.28c.79-.78,1.28-1.87,1.28-3.07s-.5-2.29-1.28-3.07c-.78-.79-1.87-1.28-3.07-1.28s-2.29.5-3.07,1.28m6.15,0c-.78-.78-1.87-1.28-3.07-1.28s-2.29.49-3.07,1.28c-.78.78-1.28,1.87-1.28,3.07s.49,2.29,1.28,3.07c.78.78,1.87,1.28,3.07,1.28s2.29-.49,3.07-1.28c.78-.78,1.28-1.87,1.28-3.07s-.49-2.29-1.28-3.07"/>
          <path class="cls-20" d="m500.95,377.33h50.6c.8,0,1.46.65,1.46,1.46v30.98c0,.8-.65,1.46-1.46,1.46h-50.6c-.8,0-1.46-.65-1.46-1.46v-30.98c0-.8.66-1.46,1.46-1.46Zm18.69,35.9h13.19c.03,2.28.97,4.33,3.52,5.93h-20.22c2.04-1.48,3.53-3.27,3.52-5.93Zm6.6-6.91c1.04,0,1.87.83,1.87,1.87s-.83,1.87-1.87,1.87-1.87-.83-1.87-1.87.83-1.87,1.87-1.87Zm-22.38-26.25h44.76c.71,0,1.29.58,1.29,1.29v22.5c0,.71-.58,1.29-1.29,1.29h-44.76c-.71,0-1.29-.58-1.29-1.29v-22.5c0-.71.58-1.29,1.29-1.29Zm-76.42-2.74h50.6c.8,0,1.46.65,1.46,1.46v30.98c0,.8-.65,1.46-1.46,1.46h-50.6c-.8,0-1.46-.65-1.46-1.46v-30.98c0-.8.65-1.46,1.46-1.46Zm18.7,35.9h13.19c.03,2.28.97,4.33,3.52,5.93h-20.23c2.04-1.48,3.53-3.27,3.53-5.93Zm6.59-6.91c1.03,0,1.87.83,1.87,1.87s-.83,1.87-1.87,1.87-1.87-.83-1.87-1.87.85-1.87,1.87-1.87Zm-22.38-26.25h44.76c.71,0,1.29.58,1.29,1.29v22.5c0,.71-.58,1.29-1.29,1.29h-44.76c-.71,0-1.29-.58-1.29-1.29v-22.5c.01-.71.58-1.29,1.29-1.29Zm27.74,63.84c-.78-.78-1.87-1.28-3.07-1.28s-2.29.49-3.07,1.28c-.78.78-1.28,1.87-1.28,3.07s.49,2.29,1.28,3.07c.78.78,1.87,1.28,3.07,1.28s2.29-.49,3.07-1.28c.78-.78,1.28-1.87,1.28-3.07s-.49-2.29-1.28-3.07Zm69.93,0c-.78-.78-1.87-1.28-3.07-1.28s-2.29.49-3.07,1.28c-.78.78-1.28,1.87-1.28,3.07s.49,2.29,1.28,3.07c.78.78,1.87,1.28,3.07,1.28s2.29-.49,3.07-1.28c.78-.78,1.28-1.87,1.28-3.07s-.49-2.29-1.28-3.07Zm-100.37,5.62c-1.48,0-2.67-1.19-2.67-2.67s1.19-2.67,2.67-2.67h18.08c.47-1.55,1.31-2.95,2.43-4.07,1.15-1.15,2.58-2.01,4.18-2.46v-8.88c0-1.48,1.19-2.67,2.67-2.67s2.67,1.19,2.67,2.67v8.88c1.61.45,3.03,1.32,4.18,2.46,1.12,1.12,1.96,2.5,2.43,4.07h17.53l.04,5.34h-17.5c-.45,1.65-1.32,3.13-2.5,4.3-1.75,1.75-4.18,2.84-6.85,2.84s-5.1-1.09-6.85-2.84c-1.17-1.17-2.05-2.65-2.5-4.3h-18.01Zm30.43-5.62c-.78-.78-1.87-1.28-3.07-1.28s-2.29.49-3.07,1.28c-.78.78-1.28,1.87-1.28,3.07s.49,2.29,1.28,3.07c.78.78,1.87,1.28,3.07,1.28s2.29-.49,3.07-1.28c.78-.78,1.28-1.87,1.28-3.07s-.49-2.29-1.28-3.07Zm0,0c-.78-.78-1.87-1.28-3.07-1.28s-2.29.49-3.07,1.28c-.78.78-1.28,1.87-1.28,3.07s.49,2.29,1.28,3.07c.78.78,1.87,1.28,3.07,1.28s2.29-.49,3.07-1.28c.78-.78,1.28-1.87,1.28-3.07s-.49-2.29-1.28-3.07Zm94.22,5.62h-18c-.46,1.65-1.33,3.13-2.5,4.3-1.75,1.75-4.18,2.84-6.85,2.84s-5.1-1.09-6.85-2.84c-1.18-1.17-2.05-2.65-2.5-4.3h-17.5l.04-5.34h17.53c.46-1.56,1.31-2.95,2.43-4.07,1.15-1.14,2.58-2.01,4.18-2.46v-8.88c0-1.48,1.19-2.67,2.67-2.67s2.67,1.19,2.67,2.67v8.88c1.6.45,3.03,1.31,4.18,2.46,1.12,1.12,1.96,2.51,2.43,4.07h18.08c1.48,0,2.67,1.19,2.67,2.67s-1.19,2.67-2.67,2.67Zm-30.43-5.62c-.79.78-1.28,1.87-1.28,3.07s.5,2.29,1.28,3.07c.78.79,1.87,1.28,3.07,1.28s2.29-.5,3.07-1.28c.79-.78,1.28-1.87,1.28-3.07s-.5-2.29-1.28-3.07c-.78-.79-1.87-1.28-3.07-1.28s-2.29.5-3.07,1.28Zm6.15,0c-.78-.78-1.87-1.28-3.07-1.28s-2.29.49-3.07,1.28c-.78.78-1.28,1.87-1.28,3.07s.49,2.29,1.28,3.07c.78.78,1.87,1.28,3.07,1.28s2.29-.49,3.07-1.28c.78-.78,1.28-1.87,1.28-3.07s-.49-2.29-1.28-3.07Z"/>
        </g>
      </g>
    </g>
    <g id="Tube_Temp" data-name="Tube Temp">
      <g class="cls-16">
        <g class="cls-35">
          <path class="cls-12" d="m550,687h-120c-11.05,0-20-8.95-20-20v-120c0-11.05,8.95-20,20-20h120c11.05,0,20,8.95,20,20v120c0,11.05-8.95,20-20,20"/>
          <path class="cls-5" d="m525.33,591.82v-34.1c0-2.86-1.17-5.45-3.06-7.34-1.88-1.88-4.49-3.06-7.34-3.06s-5.45,1.17-7.34,3.06c-1.88,1.89-3.06,4.49-3.06,7.34v65.58c-7.2,3.69-12.13,11.2-12.13,19.85,0,12.31,9.98,22.29,22.29,22.29s22.29-9.98,22.29-22.29c0-8.46-4.71-15.82-11.65-19.6v-31.73Zm-6.1,35.57c6.84,1.97,11.85,8.27,11.85,15.76,0,9.05-7.34,16.39-16.39,16.39s-16.4-7.34-16.4-16.39c0-7.48,5.01-13.79,11.86-15.76v-57.72c0-5.64,9.08-5.41,9.08,0v57.72Zm17.04-67.24v-4.82h12.58c1.33,0,2.41,1.08,2.41,2.41s-1.08,2.41-2.41,2.41h-12.58Zm0,13.18v-4.83h12.58c1.33,0,2.41,1.08,2.41,2.41s-1.08,2.41-2.41,2.41h-12.58Zm0,13.17v-4.82h12.58c1.33,0,2.41,1.08,2.41,2.41s-1.08,2.41-2.41,2.41h-12.58Zm0,13.18v-4.82h12.58c1.33,0,2.41,1.08,2.41,2.41s-1.08,2.41-2.41,2.41h-12.58Zm0,13.18v-4.83h12.58c1.33,0,2.41,1.08,2.41,2.41s-1.08,2.41-2.41,2.41h-12.58Zm-5.62,6.26c7.77,5.17,12.88,14,12.88,24.03,0,15.93-12.92,28.85-28.85,28.85s-28.85-12.92-28.85-28.85c0-10.23,5.33-19.23,13.36-24.35v-61.08c0-4.33,1.77-8.26,4.62-11.11,2.85-2.85,6.78-4.62,11.11-4.62s8.26,1.77,11.11,4.62c2.85,2.85,4.62,6.78,4.62,11.11v61.4Z"/>
          <path class="cls-20" d="m525.33,591.82v-34.1c0-2.86-1.17-5.45-3.06-7.34-1.88-1.88-4.49-3.06-7.34-3.06s-5.45,1.17-7.34,3.06c-1.88,1.89-3.06,4.49-3.06,7.34v65.58c-7.2,3.69-12.13,11.2-12.13,19.85,0,12.31,9.98,22.29,22.29,22.29s22.29-9.98,22.29-22.29c0-8.46-4.71-15.82-11.65-19.6v-31.73Zm-6.1,35.57c6.84,1.97,11.85,8.27,11.85,15.76,0,9.05-7.34,16.39-16.39,16.39s-16.4-7.34-16.4-16.39c0-7.48,5.01-13.79,11.86-15.76v-57.72c0-5.64,9.08-5.41,9.08,0v57.72Zm17.04-67.24v-4.82h12.58c1.33,0,2.41,1.08,2.41,2.41s-1.08,2.41-2.41,2.41h-12.58Zm0,13.18v-4.83h12.58c1.33,0,2.41,1.08,2.41,2.41s-1.08,2.41-2.41,2.41h-12.58Zm0,13.17v-4.82h12.58c1.33,0,2.41,1.08,2.41,2.41s-1.08,2.41-2.41,2.41h-12.58Zm0,13.18v-4.82h12.58c1.33,0,2.41,1.08,2.41,2.41s-1.08,2.41-2.41,2.41h-12.58Zm0,13.18v-4.83h12.58c1.33,0,2.41,1.08,2.41,2.41s-1.08,2.41-2.41,2.41h-12.58Zm-5.62,6.26c7.77,5.17,12.88,14,12.88,24.03,0,15.93-12.92,28.85-28.85,28.85s-28.85-12.92-28.85-28.85c0-10.23,5.33-19.23,13.36-24.35v-61.08c0-4.33,1.77-8.26,4.62-11.11,2.85-2.85,6.78-4.62,11.11-4.62s8.26,1.77,11.11,4.62c2.85,2.85,4.62,6.78,4.62,11.11v61.4Z"/>
          <path class="cls-5" d="m470.43,615.15c-7.97,4.08-16,4.19-24.08-.01l8.65-14.74c1.97,1.17,4.27,1.18,6.92,0l8.51,14.74Zm-12.15-50.43c8.16,0,15.55,3.31,20.89,8.66,5.35,5.35,8.66,12.73,8.66,20.89s-3.31,15.55-8.66,20.89c-5.35,5.35-12.73,8.66-20.89,8.66s-15.55-3.31-20.89-8.66c-5.35-5.34-8.66-12.73-8.66-20.89s3.31-15.55,8.66-20.89c5.34-5.35,12.73-8.66,20.89-8.66m19.28,10.27c-4.93-4.93-11.75-7.99-19.28-7.99s-14.35,3.05-19.28,7.99c-4.93,4.93-7.99,11.75-7.99,19.28s3.05,14.35,7.99,19.28c4.93,4.93,11.75,7.99,19.28,7.99s14.35-3.05,19.28-7.99c4.93-4.93,7.99-11.75,7.99-19.28s-3.05-14.35-7.99-19.28m-7.25-1.74c7.52,4.86,11.63,11.76,12.03,20.86l-17.09-.12c.03-2.29-1.12-4.29-3.45-5.99l8.52-14.75Zm-12,16.68c2.56,0,4.64,2.08,4.64,4.64s-2.08,4.64-4.64,4.64-4.64-2.08-4.64-4.64,2.08-4.64,4.64-4.64m-24.03,4.29c.45-8.94,4.37-15.95,12.05-20.85l8.44,14.86c-1.99,1.12-3.15,3.11-3.46,5.99h-17.03Z"/>
          <path class="cls-20" d="m470.43,615.15c-7.97,4.08-16,4.19-24.08-.01l8.65-14.74c1.97,1.17,4.27,1.18,6.92,0l8.51,14.74Zm-12.15-50.43c8.16,0,15.55,3.31,20.89,8.66,5.35,5.35,8.66,12.73,8.66,20.89s-3.31,15.55-8.66,20.89c-5.35,5.35-12.73,8.66-20.89,8.66s-15.55-3.31-20.89-8.66c-5.35-5.34-8.66-12.73-8.66-20.89s3.31-15.55,8.66-20.89c5.34-5.35,12.73-8.66,20.89-8.66Zm19.28,10.27c-4.93-4.93-11.75-7.99-19.28-7.99s-14.35,3.05-19.28,7.99c-4.93,4.93-7.99,11.75-7.99,19.28s3.05,14.35,7.99,19.28c4.93,4.93,11.75,7.99,19.28,7.99s14.35-3.05,19.28-7.99c4.93-4.93,7.99-11.75,7.99-19.28s-3.05-14.35-7.99-19.28Zm-7.25-1.74c7.52,4.86,11.63,11.76,12.03,20.86l-17.09-.12c.03-2.29-1.12-4.29-3.45-5.99l8.52-14.75Zm-12,16.68c2.56,0,4.64,2.08,4.64,4.64s-2.08,4.64-4.64,4.64-4.64-2.08-4.64-4.64,2.08-4.64,4.64-4.64Zm-24.03,4.29c.45-8.94,4.37-15.95,12.05-20.85l8.44,14.86c-1.99,1.12-3.15,3.11-3.46,5.99h-17.03Z"/>
          <path class="cls-10" d="m432.12,539.54c.58-.59.56-1.54-.03-2.11-.59-.58-1.54-.56-2.11.03l-11.54,11.91h0c-.58.59-.56,1.54.03,2.12.02.02.03.03.05.05l11.47,11.72c.58.59,1.52.61,2.11.03.59-.58.6-1.52.03-2.11l-10.53-10.77,10.53-10.86Z"/>
          <path class="cls-22" d="m432.12,539.54c.58-.59.56-1.54-.03-2.11-.59-.58-1.54-.56-2.11.03l-11.54,11.91h0c-.58.59-.56,1.54.03,2.12.02.02.03.03.05.05l11.47,11.72c.58.59,1.52.61,2.11.03.59-.58.6-1.52.03-2.11l-10.53-10.77,10.53-10.86Z"/>
        </g>
      </g>
      <g class="cls-45">
        <g class="cls-63">
          <path class="cls-2" d="m550,687h-120c-11.05,0-20-8.95-20-20v-120c0-11.05,8.95-20,20-20h120c11.05,0,20,8.95,20,20v120c0,11.05-8.95,20-20,20"/>
          <path class="cls-5" d="m525.33,591.82v-34.1c0-2.86-1.17-5.45-3.06-7.34-1.88-1.88-4.49-3.06-7.34-3.06s-5.45,1.17-7.34,3.06c-1.88,1.89-3.06,4.49-3.06,7.34v65.58c-7.2,3.69-12.13,11.2-12.13,19.85,0,12.31,9.98,22.29,22.29,22.29s22.29-9.98,22.29-22.29c0-8.46-4.71-15.82-11.65-19.6v-31.73Zm-6.1,35.57c6.84,1.97,11.85,8.27,11.85,15.76,0,9.05-7.34,16.39-16.39,16.39s-16.4-7.34-16.4-16.39c0-7.48,5.01-13.79,11.86-15.76v-57.72c0-5.64,9.08-5.41,9.08,0v57.72Zm17.04-67.24v-4.82h12.58c1.33,0,2.41,1.08,2.41,2.41s-1.08,2.41-2.41,2.41h-12.58Zm0,13.18v-4.83h12.58c1.33,0,2.41,1.08,2.41,2.41s-1.08,2.41-2.41,2.41h-12.58Zm0,13.17v-4.82h12.58c1.33,0,2.41,1.08,2.41,2.41s-1.08,2.41-2.41,2.41h-12.58Zm0,13.18v-4.82h12.58c1.33,0,2.41,1.08,2.41,2.41s-1.08,2.41-2.41,2.41h-12.58Zm0,13.18v-4.83h12.58c1.33,0,2.41,1.08,2.41,2.41s-1.08,2.41-2.41,2.41h-12.58Zm-5.62,6.26c7.77,5.17,12.88,14,12.88,24.03,0,15.93-12.92,28.85-28.85,28.85s-28.85-12.92-28.85-28.85c0-10.23,5.33-19.23,13.36-24.35v-61.08c0-4.33,1.77-8.26,4.62-11.11,2.85-2.85,6.78-4.62,11.11-4.62s8.26,1.77,11.11,4.62c2.85,2.85,4.62,6.78,4.62,11.11v61.4Z"/>
          <path class="cls-20" d="m525.33,591.82v-34.1c0-2.86-1.17-5.45-3.06-7.34-1.88-1.88-4.49-3.06-7.34-3.06s-5.45,1.17-7.34,3.06c-1.88,1.89-3.06,4.49-3.06,7.34v65.58c-7.2,3.69-12.13,11.2-12.13,19.85,0,12.31,9.98,22.29,22.29,22.29s22.29-9.98,22.29-22.29c0-8.46-4.71-15.82-11.65-19.6v-31.73Zm-6.1,35.57c6.84,1.97,11.85,8.27,11.85,15.76,0,9.05-7.34,16.39-16.39,16.39s-16.4-7.34-16.4-16.39c0-7.48,5.01-13.79,11.86-15.76v-57.72c0-5.64,9.08-5.41,9.08,0v57.72Zm17.04-67.24v-4.82h12.58c1.33,0,2.41,1.08,2.41,2.41s-1.08,2.41-2.41,2.41h-12.58Zm0,13.18v-4.83h12.58c1.33,0,2.41,1.08,2.41,2.41s-1.08,2.41-2.41,2.41h-12.58Zm0,13.17v-4.82h12.58c1.33,0,2.41,1.08,2.41,2.41s-1.08,2.41-2.41,2.41h-12.58Zm0,13.18v-4.82h12.58c1.33,0,2.41,1.08,2.41,2.41s-1.08,2.41-2.41,2.41h-12.58Zm0,13.18v-4.83h12.58c1.33,0,2.41,1.08,2.41,2.41s-1.08,2.41-2.41,2.41h-12.58Zm-5.62,6.26c7.77,5.17,12.88,14,12.88,24.03,0,15.93-12.92,28.85-28.85,28.85s-28.85-12.92-28.85-28.85c0-10.23,5.33-19.23,13.36-24.35v-61.08c0-4.33,1.77-8.26,4.62-11.11,2.85-2.85,6.78-4.62,11.11-4.62s8.26,1.77,11.11,4.62c2.85,2.85,4.62,6.78,4.62,11.11v61.4Z"/>
          <path class="cls-5" d="m470.43,615.15c-7.97,4.08-16,4.19-24.08-.01l8.65-14.74c1.97,1.17,4.27,1.18,6.92,0l8.51,14.74Zm-12.15-50.43c8.16,0,15.55,3.31,20.89,8.66,5.35,5.35,8.66,12.73,8.66,20.89s-3.31,15.55-8.66,20.89c-5.35,5.35-12.73,8.66-20.89,8.66s-15.55-3.31-20.89-8.66c-5.35-5.34-8.66-12.73-8.66-20.89s3.31-15.55,8.66-20.89c5.34-5.35,12.73-8.66,20.89-8.66m19.28,10.27c-4.93-4.93-11.75-7.99-19.28-7.99s-14.35,3.05-19.28,7.99c-4.93,4.93-7.99,11.75-7.99,19.28s3.05,14.35,7.99,19.28c4.93,4.93,11.75,7.99,19.28,7.99s14.35-3.05,19.28-7.99c4.93-4.93,7.99-11.75,7.99-19.28s-3.05-14.35-7.99-19.28m-7.25-1.74c7.52,4.86,11.63,11.76,12.03,20.86l-17.09-.12c.03-2.29-1.12-4.29-3.45-5.99l8.52-14.75Zm-12,16.68c2.56,0,4.64,2.08,4.64,4.64s-2.08,4.64-4.64,4.64-4.64-2.08-4.64-4.64,2.08-4.64,4.64-4.64m-24.03,4.29c.45-8.94,4.37-15.95,12.05-20.85l8.44,14.86c-1.99,1.12-3.15,3.11-3.46,5.99h-17.03Z"/>
          <path class="cls-20" d="m470.43,615.15c-7.97,4.08-16,4.19-24.08-.01l8.65-14.74c1.97,1.17,4.27,1.18,6.92,0l8.51,14.74Zm-12.15-50.43c8.16,0,15.55,3.31,20.89,8.66,5.35,5.35,8.66,12.73,8.66,20.89s-3.31,15.55-8.66,20.89c-5.35,5.35-12.73,8.66-20.89,8.66s-15.55-3.31-20.89-8.66c-5.35-5.34-8.66-12.73-8.66-20.89s3.31-15.55,8.66-20.89c5.34-5.35,12.73-8.66,20.89-8.66Zm19.28,10.27c-4.93-4.93-11.75-7.99-19.28-7.99s-14.35,3.05-19.28,7.99c-4.93,4.93-7.99,11.75-7.99,19.28s3.05,14.35,7.99,19.28c4.93,4.93,11.75,7.99,19.28,7.99s14.35-3.05,19.28-7.99c4.93-4.93,7.99-11.75,7.99-19.28s-3.05-14.35-7.99-19.28Zm-7.25-1.74c7.52,4.86,11.63,11.76,12.03,20.86l-17.09-.12c.03-2.29-1.12-4.29-3.45-5.99l8.52-14.75Zm-12,16.68c2.56,0,4.64,2.08,4.64,4.64s-2.08,4.64-4.64,4.64-4.64-2.08-4.64-4.64,2.08-4.64,4.64-4.64Zm-24.03,4.29c.45-8.94,4.37-15.95,12.05-20.85l8.44,14.86c-1.99,1.12-3.15,3.11-3.46,5.99h-17.03Z"/>
          <path class="cls-10" d="m432.12,539.54c.58-.59.56-1.54-.03-2.11-.59-.58-1.54-.56-2.11.03l-11.54,11.91h0c-.58.59-.56,1.54.03,2.12.02.02.03.03.05.05l11.47,11.72c.58.59,1.52.61,2.11.03.59-.58.6-1.52.03-2.11l-10.53-10.77,10.53-10.86Z"/>
          <path class="cls-22" d="m432.12,539.54c.58-.59.56-1.54-.03-2.11-.59-.58-1.54-.56-2.11.03l-11.54,11.91h0c-.58.59-.56,1.54.03,2.12.02.02.03.03.05.05l11.47,11.72c.58.59,1.52.61,2.11.03.59-.58.6-1.52.03-2.11l-10.53-10.77,10.53-10.86Z"/>
        </g>
      </g>
    </g>
    <g id="Battery">
      <g id="Connected">
        <g class="cls-43">
          <g class="cls-29">
            <path class="cls-12" d="m360,497h-120c-11.05,0-20-8.95-20-20v-120c0-11.05,8.95-20,20-20h120c11.05,0,20,8.95,20,20v120c0,11.05-8.95,20-20,20"/>
            <path class="cls-13" d="m282.04,368.31h6.45v-12.97c0-1.84,1.5-3.35,3.34-3.35s3.35,1.51,3.35,3.35v12.97h9.82v-12.97c0-1.84,1.5-3.35,3.34-3.35s3.35,1.51,3.35,3.35v12.97h6.28c1.16,0,2.11.95,2.11,2.11v2.45c0,1.16-.95,2.11-2.11,2.11h-35.92c-1.16,0-2.11-.95-2.11-2.11v-2.45c0-1.16.95-2.11,2.11-2.11m1.66,6.71v5.12c0,8.98,3.98,13.37,13.13,14.47v7.39h6.69v-7.47c9.05-.87,13.13-6.19,13.13-14.89v-4.62h-32.95Zm7.56,1.86h17.82v2.65h-17.82v-2.65Z"/>
            <path class="cls-20" d="m282.04,368.31h6.45v-12.97c0-1.84,1.5-3.35,3.34-3.35s3.35,1.51,3.35,3.35v12.97h9.82v-12.97c0-1.84,1.5-3.35,3.34-3.35s3.35,1.51,3.35,3.35v12.97h6.28c1.16,0,2.11.95,2.11,2.11v2.45c0,1.16-.95,2.11-2.11,2.11h-35.92c-1.16,0-2.11-.95-2.11-2.11v-2.45c0-1.16.95-2.11,2.11-2.11Zm1.66,6.71v5.12c0,8.98,3.98,13.37,13.13,14.47v7.39h6.69v-7.47c9.05-.87,13.13-6.19,13.13-14.89v-4.62h-32.95Zm7.56,1.86h17.82v2.65h-17.82v-2.65Z"/>
            <path class="cls-11" d="m339.49,428.9c-.01-4.79-3.77-8.67-8.41-8.69h-73.07c-2.23,0-4.36.91-5.94,2.54-1.58,1.62-2.46,3.83-2.46,6.13v44.64c.01,4.79,3.77,8.67,8.41,8.69h73.11c2.14-.01,4.19-.87,5.74-2.4l.17-.15c1.58-1.63,2.46-3.83,2.46-6.14v-8.58h8.27c1.45,0,2.63-1.23,2.64-2.73v-22.04c0-1.5-1.18-2.72-2.64-2.73h-8.27v-8.57.02Zm-4.95,44.63c0,.95-.36,1.87-1.02,2.54l-.09.1c-.64.61-1.48.95-2.35.95h-73.08c-1.92-.01-3.46-1.62-3.45-3.6v-44.62c0-.95.36-1.87,1.01-2.54.65-.68,1.54-1.06,2.46-1.05h73.1c1.9,0,3.44,1.6,3.45,3.57v44.64h-.03Z"/>
            <path class="cls-21" d="m339.49,428.9c-.01-4.79-3.77-8.67-8.41-8.69h-73.07c-2.23,0-4.36.91-5.94,2.54-1.58,1.62-2.46,3.83-2.46,6.13v44.64c.01,4.79,3.77,8.67,8.41,8.69h73.11c2.14-.01,4.19-.87,5.74-2.4l.17-.15c1.58-1.63,2.46-3.83,2.46-6.14v-8.58h8.27c1.45,0,2.63-1.23,2.64-2.73v-22.04c0-1.5-1.18-2.72-2.64-2.73h-8.27v-8.57.02Zm-4.95,44.63c0,.95-.36,1.87-1.02,2.54l-.09.1c-.64.61-1.48.95-2.35.95h-73.08c-1.92-.01-3.46-1.62-3.45-3.6v-44.62c0-.95.36-1.87,1.01-2.54.65-.68,1.54-1.06,2.46-1.05h73.1c1.9,0,3.44,1.6,3.45,3.57v44.64h-.03Z"/>
            <rect class="cls-11" x="285.55" y="430.8" width="18.79" height="40.83"/>
            <rect class="cls-21" x="285.55" y="430.8" width="18.79" height="40.83"/>
            <path class="cls-13" d="m279.17,430.81v40.83h-17.08c-1.18-.01-2.13-1-2.14-2.21v-36.44c0-1.22.96-2.2,2.14-2.2l17.08.03Z"/>
            <path class="cls-21" d="m279.17,430.81v40.83h-17.08c-1.18-.01-2.13-1-2.14-2.21v-36.44c0-1.22.96-2.2,2.14-2.2l17.08.03Z"/>
            <path class="cls-13" d="m310.51,430.8h16.67c1.17.01,2.12.99,2.13,2.2v36.41c-.02,1.21-.96,2.19-2.13,2.21h-16.67v-40.83Z"/>
            <path class="cls-21" d="m310.51,430.8h16.67c1.17.01,2.12.99,2.13,2.2v36.41c-.02,1.21-.96,2.19-2.13,2.21h-16.67v-40.83Z"/>
          </g>
        </g>
      </g>
      <g id="Not_Connected" data-name="Not Connected">
        <g class="cls-33">
          <g class="cls-41">
            <path class="cls-15" d="m360,497h-120c-11.05,0-20-8.95-20-20v-120c0-11.05,8.95-20,20-20h120c11.05,0,20,8.95,20,20v120c0,11.05-8.95,20-20,20"/>
            <path class="cls-13" d="m282.04,368.31h6.45v-12.97c0-1.84,1.5-3.35,3.34-3.35s3.35,1.51,3.35,3.35v12.97h9.82v-12.97c0-1.84,1.5-3.35,3.34-3.35s3.35,1.51,3.35,3.35v12.97h6.28c1.16,0,2.11.95,2.11,2.11v2.45c0,1.16-.95,2.11-2.11,2.11h-35.92c-1.16,0-2.11-.95-2.11-2.11v-2.45c0-1.16.95-2.11,2.11-2.11m1.66,6.71v5.12c0,8.98,3.98,13.37,13.13,14.47v7.39h6.69v-7.47c9.05-.87,13.13-6.19,13.13-14.89v-4.62h-32.95Zm7.56,1.86h17.82v2.65h-17.82v-2.65Z"/>
            <path class="cls-20" d="m282.04,368.31h6.45v-12.97c0-1.84,1.5-3.35,3.34-3.35s3.35,1.51,3.35,3.35v12.97h9.82v-12.97c0-1.84,1.5-3.35,3.34-3.35s3.35,1.51,3.35,3.35v12.97h6.28c1.16,0,2.11.95,2.11,2.11v2.45c0,1.16-.95,2.11-2.11,2.11h-35.92c-1.16,0-2.11-.95-2.11-2.11v-2.45c0-1.16.95-2.11,2.11-2.11Zm1.66,6.71v5.12c0,8.98,3.98,13.37,13.13,14.47v7.39h6.69v-7.47c9.05-.87,13.13-6.19,13.13-14.89v-4.62h-32.95Zm7.56,1.86h17.82v2.65h-17.82v-2.65Z"/>
            <path class="cls-11" d="m259.96,469.43c.01,1.22.96,2.2,2.14,2.21h17.08v-26.08l-19.22-12.22v36.08Zm25.59-23.56l18.79,11.95v-8.53l-18.79-12.03v8.61Zm0,25.76h18.79v-10.07l-18.79-11.95v22.01Zm49.02,1.9h-.03c0,.96-.36,1.88-1.02,2.55l-.09.1s-.06.04-.09.07l4.29,2.72c1.2-1.53,1.86-3.45,1.86-5.45v-1.74l-4.92-3.15v4.89Zm-5.26-40.52c-.01-1.21-.96-2.19-2.13-2.2h-16.67v18.64l18.8,12.03v-28.47Zm-18.8,28.73l15.56,9.89h1.11c1.17-.03,2.11-1,2.13-2.21v-4.15l-18.8-12.04v8.5Zm-52.5,15.39h-.02c-1.92,0-3.46-1.62-3.45-3.6v-43.62l-4.71-2.99c-.15.64-.23,1.3-.23,1.97v44.64c.01,4.79,3.77,8.67,8.41,8.69h73.11c1.41,0,2.78-.39,4-1.08l-6.29-4h-70.81Zm-2.46-50.76c.65-.68,1.54-1.06,2.46-1.05h8.89l-7.97-5.1h-.92c-2.23,0-4.36.91-5.94,2.54-.36.37-.68.78-.97,1.21l4.23,2.69c.08-.1.14-.2.23-.29m54.96,45.26h9.67l-9.67-6.15v6.15Zm37.25-34.17h-8.27v-8.55c-.01-4.79-3.77-8.67-8.41-8.69h-66.22l7.97,5.1h58.28c1.9,0,3.44,1.6,3.45,3.57v35.95l4.92,3.15v-3.04h8.27c1.46,0,2.63-1.23,2.64-2.73v-22.04c0-1.51-1.18-2.72-2.64-2.73m-43.42-6.65h-18.79v2.66l18.79,12.03v-14.69Zm-25.17,2.38l-3.7-2.37-13.38-.03c-.08,0-.16.02-.24.03l17.32,11.01v-8.64Z"/>
            <path class="cls-21" d="m259.96,469.43c.01,1.22.96,2.2,2.14,2.21h17.08v-26.08l-19.22-12.22v36.08Zm25.59-23.56l18.79,11.95v-8.53l-18.79-12.03v8.61Zm0,25.76h18.79v-10.07l-18.79-11.95v22.01Zm49.02,1.9h-.03c0,.96-.36,1.88-1.02,2.55l-.09.1s-.06.04-.09.07l4.29,2.72c1.2-1.53,1.86-3.45,1.86-5.45v-1.74l-4.92-3.15v4.89Zm-5.26-40.52c-.01-1.21-.96-2.19-2.13-2.2h-16.67v18.64l18.8,12.03v-28.47Zm-18.8,28.73l15.56,9.89h1.11c1.17-.03,2.11-1,2.13-2.21v-4.15l-18.8-12.04v8.5Zm-52.5,15.39h-.02c-1.92,0-3.46-1.62-3.45-3.6v-43.62l-4.71-2.99c-.15.64-.23,1.3-.23,1.97v44.64c.01,4.79,3.77,8.67,8.41,8.69h73.11c1.41,0,2.78-.39,4-1.08l-6.29-4h-70.81Zm-2.46-50.76c.65-.68,1.54-1.06,2.46-1.05h8.89l-7.97-5.1h-.92c-2.23,0-4.36.91-5.94,2.54-.36.37-.68.78-.97,1.21l4.23,2.69c.08-.1.14-.2.23-.29Zm54.96,45.26h9.67l-9.67-6.15v6.15Zm37.25-34.17h-8.27v-8.55c-.01-4.79-3.77-8.67-8.41-8.69h-66.22l7.97,5.1h58.28c1.9,0,3.44,1.6,3.45,3.57v35.95l4.92,3.15v-3.04h8.27c1.46,0,2.63-1.23,2.64-2.73v-22.04c0-1.51-1.18-2.72-2.64-2.73Zm-43.42-6.65h-18.79v2.66l18.79,12.03v-14.69Zm-25.17,2.38l-3.7-2.37-13.38-.03c-.08,0-.16.02-.24.03l17.32,11.01v-8.64Z"/>
            <path class="cls-10" d="m344.69,481.62l2.05-3.23c.5-.78.27-1.82-.52-2.32l-95.25-60.55c-.78-.5-1.82-.27-2.32.52l-2.06,3.23c-.5.78-.27,1.82.52,2.32l95.25,60.55c.78.5,1.82.27,2.32-.52"/>
            <path class="cls-19" d="m344.69,481.62l2.05-3.23c.5-.78.27-1.82-.52-2.32l-95.25-60.55c-.78-.5-1.82-.27-2.32.52l-2.06,3.23c-.5.78-.27,1.82.52,2.32l95.25,60.55c.78.5,1.82.27,2.32-.52Z"/>
          </g>
        </g>
      </g>
      <g id="High">
        <g class="cls-64">
          <g class="cls-56">
            <path class="cls-2" d="m360,497h-120c-11.05,0-20-8.95-20-20v-120c0-11.05,8.95-20,20-20h120c11.05,0,20,8.95,20,20v120c0,11.05-8.95,20-20,20"/>
            <path class="cls-11" d="m339.49,428.9c-.01-4.79-3.77-8.67-8.41-8.69h-73.07c-2.23,0-4.36.91-5.94,2.54-1.58,1.62-2.46,3.83-2.46,6.13v44.64c.01,4.79,3.77,8.67,8.41,8.69h73.11c2.14-.01,4.19-.87,5.74-2.4l.17-.15c1.58-1.63,2.46-3.83,2.46-6.14v-8.58h8.27c1.45,0,2.63-1.23,2.64-2.73v-22.04c0-1.5-1.18-2.72-2.64-2.73h-8.27v-8.57.02Zm-4.95,44.63c0,.95-.36,1.87-1.02,2.54l-.09.1c-.64.61-1.48.95-2.35.95h-73.08c-1.92-.01-3.46-1.62-3.45-3.6v-44.62c0-.95.36-1.87,1.01-2.54.65-.68,1.54-1.06,2.46-1.05h73.1c1.9,0,3.44,1.6,3.45,3.57v44.64h-.03Z"/>
            <path class="cls-21" d="m339.49,428.9c-.01-4.79-3.77-8.67-8.41-8.69h-73.07c-2.23,0-4.36.91-5.94,2.54-1.58,1.62-2.46,3.83-2.46,6.13v44.64c.01,4.79,3.77,8.67,8.41,8.69h73.11c2.14-.01,4.19-.87,5.74-2.4l.17-.15c1.58-1.63,2.46-3.83,2.46-6.14v-8.58h8.27c1.45,0,2.63-1.23,2.64-2.73v-22.04c0-1.5-1.18-2.72-2.64-2.73h-8.27v-8.57.02Zm-4.95,44.63c0,.95-.36,1.87-1.02,2.54l-.09.1c-.64.61-1.48.95-2.35.95h-73.08c-1.92-.01-3.46-1.62-3.45-3.6v-44.62c0-.95.36-1.87,1.01-2.54.65-.68,1.54-1.06,2.46-1.05h73.1c1.9,0,3.44,1.6,3.45,3.57v44.64h-.03Z"/>
            <rect class="cls-11" x="285.55" y="430.8" width="18.79" height="40.83"/>
            <rect class="cls-21" x="285.55" y="430.8" width="18.79" height="40.83"/>
            <path class="cls-13" d="m279.17,430.81v40.83h-17.08c-1.18-.01-2.13-1-2.14-2.21v-36.44c0-1.22.96-2.2,2.14-2.2l17.08.03Z"/>
            <path class="cls-21" d="m279.17,430.81v40.83h-17.08c-1.18-.01-2.13-1-2.14-2.21v-36.44c0-1.22.96-2.2,2.14-2.2l17.08.03Z"/>
            <path class="cls-13" d="m310.51,430.8h16.67c1.17.01,2.12.99,2.13,2.2v36.41c-.02,1.21-.96,2.19-2.13,2.21h-16.67v-40.83Z"/>
            <path class="cls-21" d="m310.51,430.8h16.67c1.17.01,2.12.99,2.13,2.2v36.41c-.02,1.21-.96,2.19-2.13,2.21h-16.67v-40.83Z"/>
            <path class="cls-11" d="m291.72,349.19c8.53-2.29,17.17-.89,24.26,3.2h0c7.09,4.09,12.62,10.89,14.91,19.42,2.29,8.53.89,17.18-3.2,24.27-.58,1-1.21,1.97-1.89,2.91-.07.11-.15.22-.24.33l-.03.04c-4.15,5.51-10.09,9.72-17.26,11.64-8.53,2.28-17.17.89-24.27-3.2h0c-7.09-4.09-12.62-10.89-14.91-19.42-2.29-8.53-.9-17.18,3.2-24.28l.11-.17c1.18-2.01,2.58-3.89,4.16-5.6l.02-.02c.09-.1.18-.2.27-.29,3.92-4.12,8.98-7.24,14.86-8.82m4.77,53.53v-6.93c-4.11-.55-7.09-1.86-9.09-4.05-2.06-2.27-3.02-5.45-3.02-9.7v-4.67s-.62,0-.62,0c-1.05,0-1.91-.86-1.91-1.91v-2.21c0-.79.49-1.48,1.19-1.76l26.67,22.33c-1.69.98-3.75,1.62-6.2,1.9v7h-7.02Zm-14.14-43.78l41.83,35.04c3.4-6.05,4.55-13.38,2.65-20.63l-.09-.32c-2.01-7.33-6.78-13.17-12.88-16.69-6.14-3.55-13.65-4.75-21.05-2.76-3.97,1.06-7.5,2.93-10.47,5.38m37.95,40.35l-42.5-35.59c-.63.84-1.21,1.72-1.74,2.62l-.09.17c-3.54,6.14-4.75,13.64-2.77,21.04v.02c1.99,7.4,6.78,13.3,12.93,16.85,6.1,3.52,13.53,4.73,20.88,2.81l.33-.09c5.15-1.41,9.56-4.18,12.96-7.82m-30.71-37.68v-.46c0-1.66,1.36-3.03,3.03-3.03s3.03,1.37,3.03,3.03v5.53l-6.05-5.07Zm11.6,9.71h3.33v-10.18c0-1.66,1.36-3.03,3.03-3.03s3.02,1.37,3.02,3.03v10.18h5.67c1.05,0,1.91.86,1.91,1.91v2.21c0,1.05-.86,1.91-1.91,1.91h-.62v4.21c0,.61-.02,1.21-.07,1.79l-14.37-12.03Z"/>
            <path class="cls-20" d="m291.72,349.19c8.53-2.29,17.17-.89,24.26,3.2h0c7.09,4.09,12.62,10.89,14.91,19.42,2.29,8.53.89,17.18-3.2,24.27-.58,1-1.21,1.97-1.89,2.91-.07.11-.15.22-.24.33l-.03.04c-4.15,5.51-10.09,9.72-17.26,11.64-8.53,2.28-17.17.89-24.27-3.2h0c-7.09-4.09-12.62-10.89-14.91-19.42-2.29-8.53-.9-17.18,3.2-24.28l.11-.17c1.18-2.01,2.58-3.89,4.16-5.6l.02-.02c.09-.1.18-.2.27-.29,3.92-4.12,8.98-7.24,14.86-8.82Zm4.77,53.53v-6.93c-4.11-.55-7.09-1.86-9.09-4.05-2.06-2.27-3.02-5.45-3.02-9.7v-4.67s-.62,0-.62,0c-1.05,0-1.91-.86-1.91-1.91v-2.21c0-.79.49-1.48,1.19-1.76l26.67,22.33c-1.69.98-3.75,1.62-6.2,1.9v7h-7.02Zm-14.14-43.78l41.83,35.04c3.4-6.05,4.55-13.38,2.65-20.63l-.09-.32c-2.01-7.33-6.78-13.17-12.88-16.69-6.14-3.55-13.65-4.75-21.05-2.76-3.97,1.06-7.5,2.93-10.47,5.38Zm37.95,40.35l-42.5-35.59c-.63.84-1.21,1.72-1.74,2.62l-.09.17c-3.54,6.14-4.75,13.64-2.77,21.04v.02c1.99,7.4,6.78,13.3,12.93,16.85,6.1,3.52,13.53,4.73,20.88,2.81l.33-.09c5.15-1.41,9.56-4.18,12.96-7.82Zm-30.71-37.68v-.46c0-1.66,1.36-3.03,3.03-3.03s3.03,1.37,3.03,3.03v5.53l-6.05-5.07Zm11.6,9.71h3.33v-10.18c0-1.66,1.36-3.03,3.03-3.03s3.02,1.37,3.02,3.03v10.18h5.67c1.05,0,1.91.86,1.91,1.91v2.21c0,1.05-.86,1.91-1.91,1.91h-.62v4.21c0,.61-.02,1.21-.07,1.79l-14.37-12.03Z"/>
          </g>
        </g>
      </g>
      <g id="Medium">
        <g class="cls-44">
          <g class="cls-52">
            <path class="cls-2" d="m360,497h-120c-11.05,0-20-8.95-20-20v-120c0-11.05,8.95-20,20-20h120c11.05,0,20,8.95,20,20v120c0,11.05-8.95,20-20,20"/>
            <path class="cls-11" d="m339.49,428.9c-.01-4.79-3.77-8.67-8.41-8.69h-73.07c-2.23,0-4.36.91-5.94,2.54-1.58,1.62-2.46,3.83-2.46,6.13v44.64c.01,4.79,3.77,8.67,8.41,8.69h73.11c2.14-.01,4.19-.87,5.74-2.4l.17-.15c1.58-1.63,2.46-3.83,2.46-6.14v-8.58h8.27c1.45,0,2.63-1.23,2.64-2.73v-22.04c0-1.5-1.18-2.72-2.64-2.73h-8.27v-8.57.02Zm-4.95,44.63c0,.95-.36,1.87-1.02,2.54l-.09.1c-.64.61-1.48.95-2.35.95h-73.08c-1.92-.01-3.46-1.62-3.45-3.6v-44.62c0-.95.36-1.87,1.01-2.54.65-.68,1.54-1.06,2.46-1.05h73.1c1.9,0,3.44,1.6,3.45,3.57v44.64h-.03Z"/>
            <path class="cls-21" d="m339.49,428.9c-.01-4.79-3.77-8.67-8.41-8.69h-73.07c-2.23,0-4.36.91-5.94,2.54-1.58,1.62-2.46,3.83-2.46,6.13v44.64c.01,4.79,3.77,8.67,8.41,8.69h73.11c2.14-.01,4.19-.87,5.74-2.4l.17-.15c1.58-1.63,2.46-3.83,2.46-6.14v-8.58h8.27c1.45,0,2.63-1.23,2.64-2.73v-22.04c0-1.5-1.18-2.72-2.64-2.73h-8.27v-8.57.02Zm-4.95,44.63c0,.95-.36,1.87-1.02,2.54l-.09.1c-.64.61-1.48.95-2.35.95h-73.08c-1.92-.01-3.46-1.62-3.45-3.6v-44.62c0-.95.36-1.87,1.01-2.54.65-.68,1.54-1.06,2.46-1.05h73.1c1.9,0,3.44,1.6,3.45,3.57v44.64h-.03Z"/>
            <rect class="cls-11" x="285.55" y="430.8" width="18.79" height="40.83"/>
            <rect class="cls-21" x="285.55" y="430.8" width="18.79" height="40.83"/>
            <path class="cls-13" d="m279.17,430.81v40.83h-17.08c-1.18-.01-2.13-1-2.14-2.21v-36.44c0-1.22.96-2.2,2.14-2.2l17.08.03Z"/>
            <path class="cls-21" d="m279.17,430.81v40.83h-17.08c-1.18-.01-2.13-1-2.14-2.21v-36.44c0-1.22.96-2.2,2.14-2.2l17.08.03Z"/>
            <path class="cls-11" d="m291.72,349.19c8.53-2.29,17.17-.89,24.26,3.2h0c7.09,4.09,12.62,10.89,14.91,19.42,2.29,8.53.89,17.18-3.2,24.27-.58,1-1.21,1.97-1.89,2.91-.07.11-.15.22-.24.33l-.03.04c-4.15,5.51-10.09,9.72-17.26,11.64-8.53,2.28-17.17.89-24.27-3.2h0c-7.09-4.09-12.62-10.89-14.91-19.42-2.29-8.53-.9-17.18,3.2-24.28l.11-.17c1.18-2.01,2.58-3.89,4.16-5.6l.02-.02c.09-.1.18-.2.27-.29,3.92-4.12,8.98-7.24,14.86-8.82m4.77,53.53v-6.93c-4.11-.55-7.09-1.86-9.09-4.05-2.06-2.27-3.02-5.45-3.02-9.7v-4.67s-.62,0-.62,0c-1.05,0-1.91-.86-1.91-1.91v-2.21c0-.79.49-1.48,1.19-1.76l26.67,22.33c-1.69.98-3.75,1.62-6.2,1.9v7h-7.02Zm-14.14-43.78l41.83,35.04c3.4-6.05,4.55-13.38,2.65-20.63l-.09-.32c-2.01-7.33-6.78-13.17-12.88-16.69-6.14-3.55-13.65-4.75-21.05-2.76-3.97,1.06-7.5,2.93-10.47,5.38m37.95,40.35l-42.5-35.59c-.63.84-1.21,1.72-1.74,2.62l-.09.17c-3.54,6.14-4.75,13.64-2.77,21.04v.02c1.99,7.4,6.78,13.3,12.93,16.85,6.1,3.52,13.53,4.73,20.88,2.81l.33-.09c5.15-1.41,9.56-4.18,12.96-7.82m-30.71-37.68v-.46c0-1.66,1.36-3.03,3.03-3.03s3.03,1.37,3.03,3.03v5.53l-6.05-5.07Zm11.6,9.71h3.33v-10.18c0-1.66,1.36-3.03,3.03-3.03s3.02,1.37,3.02,3.03v10.18h5.67c1.05,0,1.91.86,1.91,1.91v2.21c0,1.05-.86,1.91-1.91,1.91h-.62v4.21c0,.61-.02,1.21-.07,1.79l-14.37-12.03Z"/>
            <path class="cls-20" d="m291.72,349.19c8.53-2.29,17.17-.89,24.26,3.2h0c7.09,4.09,12.62,10.89,14.91,19.42,2.29,8.53.89,17.18-3.2,24.27-.58,1-1.21,1.97-1.89,2.91-.07.11-.15.22-.24.33l-.03.04c-4.15,5.51-10.09,9.72-17.26,11.64-8.53,2.28-17.17.89-24.27-3.2h0c-7.09-4.09-12.62-10.89-14.91-19.42-2.29-8.53-.9-17.18,3.2-24.28l.11-.17c1.18-2.01,2.58-3.89,4.16-5.6l.02-.02c.09-.1.18-.2.27-.29,3.92-4.12,8.98-7.24,14.86-8.82Zm4.77,53.53v-6.93c-4.11-.55-7.09-1.86-9.09-4.05-2.06-2.27-3.02-5.45-3.02-9.7v-4.67s-.62,0-.62,0c-1.05,0-1.91-.86-1.91-1.91v-2.21c0-.79.49-1.48,1.19-1.76l26.67,22.33c-1.69.98-3.75,1.62-6.2,1.9v7h-7.02Zm-14.14-43.78l41.83,35.04c3.4-6.05,4.55-13.38,2.65-20.63l-.09-.32c-2.01-7.33-6.78-13.17-12.88-16.69-6.14-3.55-13.65-4.75-21.05-2.76-3.97,1.06-7.5,2.93-10.47,5.38Zm37.95,40.35l-42.5-35.59c-.63.84-1.21,1.72-1.74,2.62l-.09.17c-3.54,6.14-4.75,13.64-2.77,21.04v.02c1.99,7.4,6.78,13.3,12.93,16.85,6.1,3.52,13.53,4.73,20.88,2.81l.33-.09c5.15-1.41,9.56-4.18,12.96-7.82Zm-30.71-37.68v-.46c0-1.66,1.36-3.03,3.03-3.03s3.03,1.37,3.03,3.03v5.53l-6.05-5.07Zm11.6,9.71h3.33v-10.18c0-1.66,1.36-3.03,3.03-3.03s3.02,1.37,3.02,3.03v10.18h5.67c1.05,0,1.91.86,1.91,1.91v2.21c0,1.05-.86,1.91-1.91,1.91h-.62v4.21c0,.61-.02,1.21-.07,1.79l-14.37-12.03Z"/>
          </g>
        </g>
      </g>
      <g id="Low">
        <g class="cls-25">
          <g class="cls-23">
            <path class="cls-2" d="m360,497h-120c-11.05,0-20-8.95-20-20v-120c0-11.05,8.95-20,20-20h120c11.05,0,20,8.95,20,20v120c0,11.05-8.95,20-20,20"/>
            <path class="cls-11" d="m339.49,428.9c-.01-4.79-3.77-8.67-8.41-8.69h-73.07c-2.23,0-4.36.91-5.94,2.54-1.58,1.62-2.46,3.83-2.46,6.13v44.64c.01,4.79,3.77,8.67,8.41,8.69h73.11c2.14-.01,4.19-.87,5.74-2.4l.17-.15c1.58-1.63,2.46-3.83,2.46-6.14v-8.58h8.27c1.45,0,2.63-1.23,2.64-2.73v-22.04c0-1.5-1.18-2.72-2.64-2.73h-8.27v-8.57.02Zm-4.95,44.63c0,.95-.36,1.87-1.02,2.54l-.09.1c-.64.61-1.48.95-2.35.95h-73.08c-1.92-.01-3.46-1.62-3.45-3.6v-44.62c0-.95.36-1.87,1.01-2.54.65-.68,1.54-1.06,2.46-1.05h73.1c1.9,0,3.44,1.6,3.45,3.57v44.64h-.03Z"/>
            <path class="cls-21" d="m339.49,428.9c-.01-4.79-3.77-8.67-8.41-8.69h-73.07c-2.23,0-4.36.91-5.94,2.54-1.58,1.62-2.46,3.83-2.46,6.13v44.64c.01,4.79,3.77,8.67,8.41,8.69h73.11c2.14-.01,4.19-.87,5.74-2.4l.17-.15c1.58-1.63,2.46-3.83,2.46-6.14v-8.58h8.27c1.45,0,2.63-1.23,2.64-2.73v-22.04c0-1.5-1.18-2.72-2.64-2.73h-8.27v-8.57.02Zm-4.95,44.63c0,.95-.36,1.87-1.02,2.54l-.09.1c-.64.61-1.48.95-2.35.95h-73.08c-1.92-.01-3.46-1.62-3.45-3.6v-44.62c0-.95.36-1.87,1.01-2.54.65-.68,1.54-1.06,2.46-1.05h73.1c1.9,0,3.44,1.6,3.45,3.57v44.64h-.03Z"/>
            <path class="cls-13" d="m279.17,430.81v40.83h-17.08c-1.18-.01-2.13-1-2.14-2.21v-36.44c0-1.22.96-2.2,2.14-2.2l17.08.03Z"/>
            <path class="cls-21" d="m279.17,430.81v40.83h-17.08c-1.18-.01-2.13-1-2.14-2.21v-36.44c0-1.22.96-2.2,2.14-2.2l17.08.03Z"/>
            <path class="cls-11" d="m291.72,349.19c8.53-2.29,17.17-.89,24.26,3.2h0c7.09,4.09,12.62,10.89,14.91,19.42,2.29,8.53.89,17.18-3.2,24.27-.58,1-1.21,1.97-1.89,2.91-.07.11-.15.22-.24.33l-.03.04c-4.15,5.51-10.09,9.72-17.26,11.64-8.53,2.28-17.17.89-24.27-3.2h0c-7.09-4.09-12.62-10.89-14.91-19.42-2.29-8.53-.9-17.18,3.2-24.28l.11-.17c1.18-2.01,2.58-3.89,4.16-5.6l.02-.02c.09-.1.18-.2.27-.29,3.92-4.12,8.98-7.24,14.86-8.82m4.77,53.53v-6.93c-4.11-.55-7.09-1.86-9.09-4.05-2.06-2.27-3.02-5.45-3.02-9.7v-4.67s-.62,0-.62,0c-1.05,0-1.91-.86-1.91-1.91v-2.21c0-.79.49-1.48,1.19-1.76l26.67,22.33c-1.69.98-3.75,1.62-6.2,1.9v7h-7.02Zm-14.14-43.78l41.83,35.04c3.4-6.05,4.55-13.38,2.65-20.63l-.09-.32c-2.01-7.33-6.78-13.17-12.88-16.69-6.14-3.55-13.65-4.75-21.05-2.76-3.97,1.06-7.5,2.93-10.47,5.38m37.95,40.35l-42.5-35.59c-.63.84-1.21,1.72-1.74,2.62l-.09.17c-3.54,6.14-4.75,13.64-2.77,21.04v.02c1.99,7.4,6.78,13.3,12.93,16.85,6.1,3.52,13.53,4.73,20.88,2.81l.33-.09c5.15-1.41,9.56-4.18,12.96-7.82m-30.71-37.68v-.46c0-1.66,1.36-3.03,3.03-3.03s3.03,1.37,3.03,3.03v5.53l-6.05-5.07Zm11.6,9.71h3.33v-10.18c0-1.66,1.36-3.03,3.03-3.03s3.02,1.37,3.02,3.03v10.18h5.67c1.05,0,1.91.86,1.91,1.91v2.21c0,1.05-.86,1.91-1.91,1.91h-.62v4.21c0,.61-.02,1.21-.07,1.79l-14.37-12.03Z"/>
            <path class="cls-20" d="m291.72,349.19c8.53-2.29,17.17-.89,24.26,3.2h0c7.09,4.09,12.62,10.89,14.91,19.42,2.29,8.53.89,17.18-3.2,24.27-.58,1-1.21,1.97-1.89,2.91-.07.11-.15.22-.24.33l-.03.04c-4.15,5.51-10.09,9.72-17.26,11.64-8.53,2.28-17.17.89-24.27-3.2h0c-7.09-4.09-12.62-10.89-14.91-19.42-2.29-8.53-.9-17.18,3.2-24.28l.11-.17c1.18-2.01,2.58-3.89,4.16-5.6l.02-.02c.09-.1.18-.2.27-.29,3.92-4.12,8.98-7.24,14.86-8.82Zm4.77,53.53v-6.93c-4.11-.55-7.09-1.86-9.09-4.05-2.06-2.27-3.02-5.45-3.02-9.7v-4.67s-.62,0-.62,0c-1.05,0-1.91-.86-1.91-1.91v-2.21c0-.79.49-1.48,1.19-1.76l26.67,22.33c-1.69.98-3.75,1.62-6.2,1.9v7h-7.02Zm-14.14-43.78l41.83,35.04c3.4-6.05,4.55-13.38,2.65-20.63l-.09-.32c-2.01-7.33-6.78-13.17-12.88-16.69-6.14-3.55-13.65-4.75-21.05-2.76-3.97,1.06-7.5,2.93-10.47,5.38Zm37.95,40.35l-42.5-35.59c-.63.84-1.21,1.72-1.74,2.62l-.09.17c-3.54,6.14-4.75,13.64-2.77,21.04v.02c1.99,7.4,6.78,13.3,12.93,16.85,6.1,3.52,13.53,4.73,20.88,2.81l.33-.09c5.15-1.41,9.56-4.18,12.96-7.82Zm-30.71-37.68v-.46c0-1.66,1.36-3.03,3.03-3.03s3.03,1.37,3.03,3.03v5.53l-6.05-5.07Zm11.6,9.71h3.33v-10.18c0-1.66,1.36-3.03,3.03-3.03s3.02,1.37,3.02,3.03v10.18h5.67c1.05,0,1.91.86,1.91,1.91v2.21c0,1.05-.86,1.91-1.91,1.91h-.62v4.21c0,.61-.02,1.21-.07,1.79l-14.37-12.03Z"/>
          </g>
        </g>
      </g>
    </g>
    <g id="WarningList">
      <g id="ok-2" data-name="ok">
        <g class="cls-36">
          <g class="cls-65">
            <path class="cls-4" d="m170,994H50c-11.05,0-20-8.95-20-20v-120c0-11.05,8.95-20,20-20h120c11.05,0,20,8.95,20,20v120c0,11.05-8.95,20-20,20"/>
            <path class="cls-10" d="m52.12,846.54c.58-.59.56-1.54-.03-2.11-.59-.58-1.54-.56-2.11.03l-11.54,11.91h0c-.58.59-.56,1.54.03,2.12.02.02.03.03.05.05l11.47,11.72c.58.59,1.52.61,2.11.03.59-.58.6-1.52.03-2.11l-10.53-10.77,10.53-10.86Z"/>
            <path class="cls-22" d="m52.12,846.54c.58-.59.56-1.54-.03-2.11-.59-.58-1.54-.56-2.11.03l-11.54,11.91h0c-.58.59-.56,1.54.03,2.12.02.02.03.03.05.05l11.47,11.72c.58.59,1.52.61,2.11.03.59-.58.6-1.52.03-2.11l-10.53-10.77,10.53-10.86Z"/>
            <path class="cls-10" d="m171.82,944.19l-44.57-77.39-.24-.47c-1.98-3.64-4.88-6.7-8.4-8.88-5.23-3.09-11.72-3.09-16.95,0-3.54,2.16-6.46,5.21-8.47,8.84l-45.54,78.81v-.03c-.11.2-.21.41-.32.62-1.55,3.17-2.35,6.66-2.33,10.19.05,3.21,1,6.34,2.73,9.05,1.73,2.64,4.17,4.74,7.04,6.06,2.6,1.2,5.43,1.83,8.29,1.84h91.99c4.2.18,8.37-.85,12.02-2.94,2.57-1.52,4.67-3.72,6.08-6.35,1.22-2.44,1.85-5.14,1.84-7.87,0-4.04-1.09-8.02-3.18-11.48m-16.77,20.63H63.75c-8.39.19-13.45-6.53-9.12-15.71l45.54-78.78c5.53-9.47,14.29-9.75,19.92,0l44.82,77.84c4.36,7.19,2.55,16.84-9.86,16.65"/>
            <path class="cls-20" d="m171.82,944.19l-44.57-77.39-.24-.47c-1.98-3.64-4.88-6.7-8.4-8.88-5.23-3.09-11.72-3.09-16.95,0-3.54,2.16-6.46,5.21-8.47,8.84l-45.54,78.81v-.03c-.11.2-.21.41-.32.62-1.55,3.17-2.35,6.66-2.33,10.19.05,3.21,1,6.34,2.73,9.05,1.73,2.64,4.17,4.74,7.04,6.06,2.6,1.2,5.43,1.83,8.29,1.84h91.99c4.2.18,8.37-.85,12.02-2.94,2.57-1.52,4.67-3.72,6.08-6.35,1.22-2.44,1.85-5.14,1.84-7.87,0-4.04-1.09-8.02-3.18-11.48Zm-16.77,20.63H63.75c-8.39.19-13.45-6.53-9.12-15.71l45.54-78.78c5.53-9.47,14.29-9.75,19.92,0l44.82,77.84c4.36,7.19,2.55,16.84-9.86,16.65Z"/>
            <path class="cls-10" d="m106.01,943.13c1.63-1.62,4-2.11,6.14-1.27.8.3,1.52.77,2.12,1.38,1,1,1.61,2.33,1.69,3.75.04.5.01.99-.08,1.48-.08.49-.23.97-.44,1.42-.97,2.16-3.14,3.52-5.51,3.44-.83-.02-1.64-.21-2.39-.56-1.35-.61-2.41-1.72-2.98-3.09-.17-.45-.29-.91-.35-1.39-.06-.46-.06-.93,0-1.39.07-.73.27-1.45.59-2.12.28-.63.69-1.19,1.21-1.65m8.55-10.79c-.2,5.06-8.77,5.06-8.96,0-.87-8.67-3.09-29.26-3.02-37.41.07-2.51,2.12-4,4.82-4.56.86-.18,1.74-.27,2.63-.26.89,0,1.78.09,2.65.26,2.74.59,4.9,2.12,4.9,4.69v.28l-3.02,37.01Z"/>
            <path class="cls-20" d="m106.01,943.13c1.63-1.62,4-2.11,6.14-1.27.8.3,1.52.77,2.12,1.38,1,1,1.61,2.33,1.69,3.75.04.5.01.99-.08,1.48-.08.49-.23.97-.44,1.42-.97,2.16-3.14,3.52-5.51,3.44-.83-.02-1.64-.21-2.39-.56-1.35-.61-2.41-1.72-2.98-3.09-.17-.45-.29-.91-.35-1.39-.06-.46-.06-.93,0-1.39.07-.73.27-1.45.59-2.12.28-.63.69-1.19,1.21-1.65Zm8.55-10.79c-.2,5.06-8.77,5.06-8.96,0-.87-8.67-3.09-29.26-3.02-37.41.07-2.51,2.12-4,4.82-4.56.86-.18,1.74-.27,2.63-.26.89,0,1.78.09,2.65.26,2.74.59,4.9,2.12,4.9,4.69v.28l-3.02,37.01Z"/>
          </g>
        </g>
      </g>
      <g id="Nok">
        <g class="cls-40">
          <g class="cls-28">
            <path class="cls-2" d="m170,994H50c-11.05,0-20-8.95-20-20v-120c0-11.05,8.95-20,20-20h120c11.05,0,20,8.95,20,20v120c0,11.05-8.95,20-20,20"/>
            <path class="cls-10" d="m52.12,846.54c.58-.59.56-1.54-.03-2.11-.59-.58-1.54-.56-2.11.03l-11.54,11.91h0c-.58.59-.56,1.54.03,2.12.02.02.03.03.05.05l11.47,11.72c.58.59,1.52.61,2.11.03.59-.58.6-1.52.03-2.11l-10.53-10.77,10.53-10.86Z"/>
            <path class="cls-22" d="m52.12,846.54c.58-.59.56-1.54-.03-2.11-.59-.58-1.54-.56-2.11.03l-11.54,11.91h0c-.58.59-.56,1.54.03,2.12.02.02.03.03.05.05l11.47,11.72c.58.59,1.52.61,2.11.03.59-.58.6-1.52.03-2.11l-10.53-10.77,10.53-10.86Z"/>
            <path class="cls-10" d="m171.82,944.19l-44.57-77.39-.24-.47c-1.98-3.64-4.88-6.7-8.4-8.88-5.23-3.09-11.72-3.09-16.95,0-3.54,2.16-6.46,5.21-8.47,8.84l-45.54,78.81v-.03c-.11.2-.21.41-.32.62-1.55,3.17-2.35,6.66-2.33,10.19.05,3.21,1,6.34,2.73,9.05,1.73,2.64,4.17,4.74,7.04,6.06,2.6,1.2,5.43,1.83,8.29,1.84h91.99c4.2.18,8.37-.85,12.02-2.94,2.57-1.52,4.67-3.72,6.08-6.35,1.22-2.44,1.85-5.14,1.84-7.87,0-4.04-1.09-8.02-3.18-11.48m-16.77,20.63H63.75c-8.39.19-13.45-6.53-9.12-15.71l45.54-78.78c5.53-9.47,14.29-9.75,19.92,0l44.82,77.84c4.36,7.19,2.55,16.84-9.86,16.65"/>
            <path class="cls-20" d="m171.82,944.19l-44.57-77.39-.24-.47c-1.98-3.64-4.88-6.7-8.4-8.88-5.23-3.09-11.72-3.09-16.95,0-3.54,2.16-6.46,5.21-8.47,8.84l-45.54,78.81v-.03c-.11.2-.21.41-.32.62-1.55,3.17-2.35,6.66-2.33,10.19.05,3.21,1,6.34,2.73,9.05,1.73,2.64,4.17,4.74,7.04,6.06,2.6,1.2,5.43,1.83,8.29,1.84h91.99c4.2.18,8.37-.85,12.02-2.94,2.57-1.52,4.67-3.72,6.08-6.35,1.22-2.44,1.85-5.14,1.84-7.87,0-4.04-1.09-8.02-3.18-11.48Zm-16.77,20.63H63.75c-8.39.19-13.45-6.53-9.12-15.71l45.54-78.78c5.53-9.47,14.29-9.75,19.92,0l44.82,77.84c4.36,7.19,2.55,16.84-9.86,16.65Z"/>
            <path class="cls-10" d="m106.01,943.13c1.63-1.62,4-2.11,6.14-1.27.8.3,1.52.77,2.12,1.38,1,1,1.61,2.33,1.69,3.75.04.5.01.99-.08,1.48-.08.49-.23.97-.44,1.42-.97,2.16-3.14,3.52-5.51,3.44-.83-.02-1.64-.21-2.39-.56-1.35-.61-2.41-1.72-2.98-3.09-.17-.45-.29-.91-.35-1.39-.06-.46-.06-.93,0-1.39.07-.73.27-1.45.59-2.12.28-.63.69-1.19,1.21-1.65m8.55-10.79c-.2,5.06-8.77,5.06-8.96,0-.87-8.67-3.09-29.26-3.02-37.41.07-2.51,2.12-4,4.82-4.56.86-.18,1.74-.27,2.63-.26.89,0,1.78.09,2.65.26,2.74.59,4.9,2.12,4.9,4.69v.28l-3.02,37.01Z"/>
            <path class="cls-20" d="m106.01,943.13c1.63-1.62,4-2.11,6.14-1.27.8.3,1.52.77,2.12,1.38,1,1,1.61,2.33,1.69,3.75.04.5.01.99-.08,1.48-.08.49-.23.97-.44,1.42-.97,2.16-3.14,3.52-5.51,3.44-.83-.02-1.64-.21-2.39-.56-1.35-.61-2.41-1.72-2.98-3.09-.17-.45-.29-.91-.35-1.39-.06-.46-.06-.93,0-1.39.07-.73.27-1.45.59-2.12.28-.63.69-1.19,1.21-1.65Zm8.55-10.79c-.2,5.06-8.77,5.06-8.96,0-.87-8.67-3.09-29.26-3.02-37.41.07-2.51,2.12-4,4.82-4.56.86-.18,1.74-.27,2.63-.26.89,0,1.78.09,2.65.26,2.74.59,4.9,2.12,4.9,4.69v.28l-3.02,37.01Z"/>
          </g>
        </g>
      </g>
    </g>
    <g id="Firmware">
      <g class="cls-39">
        <g class="cls-48">
          <path class="cls-4" d="m360,994h-120c-11.05,0-20-8.95-20-20v-120c0-11.05,8.95-20,20-20h120c11.05,0,20,8.95,20,20v120c0,11.05-8.95,20-20,20"/>
          <path class="cls-10" d="m242.12,846.54c.58-.59.56-1.54-.03-2.11-.59-.58-1.54-.56-2.11.03l-11.54,11.91h0c-.58.59-.56,1.54.03,2.12.02.02.03.03.05.05l11.47,11.72c.58.59,1.52.61,2.11.03.59-.58.6-1.52.03-2.11l-10.53-10.77,10.53-10.86Z"/>
          <path class="cls-22" d="m242.12,846.54c.58-.59.56-1.54-.03-2.11-.59-.58-1.54-.56-2.11.03l-11.54,11.91h0c-.58.59-.56,1.54.03,2.12.02.02.03.03.05.05l11.47,11.72c.58.59,1.52.61,2.11.03.59-.58.6-1.52.03-2.11l-10.53-10.77,10.53-10.86Z"/>
          <path class="cls-10" d="m265.61,870.31l-12.47-4.63,4.7,12.44,12.44,6.73-4.67-14.54Zm-4.83,94.66c-.39-.22-.53-.73-.31-1.12.22-.39.73-.53,1.12-.31l7.96,4.54c.39.22.53.73.31,1.12-.22.39-.73.54-1.12.31l-7.96-4.54Zm.15-6.12c-.39-.22-.53-.73-.31-1.12.22-.39.73-.53,1.12-.31l7.81,4.46c.39.22.53.73.31,1.12-.22.39-.73.53-1.12.31l-7.81-4.47Zm77.19-6.82l-1.07-37.22-51.16,7.33.28,41.32,51.96-11.44Zm1.52-38.77l1.14,39.68c.07.67-.36,1.29-1.03,1.44l-54.62,12.02-.28.02c-.73,0-1.32-.58-1.32-1.31l-.3-44.01c-.05-.69.43-1.31,1.13-1.41l53.76-7.71h.15c.73-.02,1.34.55,1.35,1.28m-79.4,5.82l.17-13.77,8.74,3.68v14.64l-8.91-4.56Zm13.69-27.93l.54,87.9,71.27-16.08-.88-70.25-61.47,8.07c-.44.08-.92-.05-1.25-.42l-8.21-9.22Zm-1.63,90.55l-16.23-12.46c-.36-.27-.54-.7-.52-1.12l-.11-88.83-5.78-15.31c-.14-.31-.17-.67-.04-1.02.25-.69,1.02-1.04,1.7-.78l2.32.86-.24-.89c-.24-.94-.21-1.72.05-2.36.33-.79.94-1.3,1.8-1.56.1-.03.21-.05.32-.05l63.57-6.18h.19c.51.02.97.16,1.38.46l.08.07c.39.32.68.76.78,1.38l1.84,13.22,7.78-14.42c.31-.58,1-.84,1.6-.62l21.75,5.94c.7.19,1.11.91.92,1.62l-.05.16-7.66,18.5,12.21,10.23c.56.47.63,1.3.17,1.86-.23.29-.57.44-.91.47l-11.72,1.53.91,71.64c.01.64-.43,1.16-1.03,1.3l-73.92,16.67h-.03s-.02.01-.02.01h-.15c-.06,0-.13.01-.19,0h-.14s-.02-.01-.02-.01h-.07s-.01-.01-.01-.01h-.02l-.07-.02h-.04l-.04-.02h0s-.01-.01-.01-.01h-.01s-.06-.04-.06-.04h-.01l-.03-.02h-.01s-.04-.04-.04-.04h-.01s-.03-.03-.03-.03h-.01s-.01-.02-.01-.02l-.02-.02-.06-.04Zm-14.22-100.44l.11,86.27,13.64,10.47-.62-89.65-13.12-7.09Zm8.92-13.26l.1.03h.02s0,.01,0,.01h.06s.01.02.01.02h.01s.03.03.03.03h.01s.01.02.01.02c.28.16.51.41.61.74.79,2.41,1.58,4.83,2.35,7.23l50.82-6.62-2.06-14.81-63.1,6.16c-.04.12-.03.34.05.68l.67,2.46,10.39,4.06Zm54.27,8.73v-4.61l-50.16,6.54,1.75,5.58.08.28.09.28.08.27.08.28.08.28.08.24.08.27,47.82-6.12v-3.28Zm2.65,2.97l16.16-1.72-16.16-5.51v7.24Zm21.83.34l-70.56,8.54,8.47,9.5,62.34-8.19h.06l9.89-1.3-10.2-8.55Zm-20.82-10.14l20.49,7.1,6.99-16.86-19.37-5.29-8.11,15.05Z"/>
          <path class="cls-20" d="m265.61,870.31l-12.47-4.63,4.7,12.44,12.44,6.73-4.67-14.54Zm-4.83,94.66c-.39-.22-.53-.73-.31-1.12.22-.39.73-.53,1.12-.31l7.96,4.54c.39.22.53.73.31,1.12-.22.39-.73.54-1.12.31l-7.96-4.54Zm.15-6.12c-.39-.22-.53-.73-.31-1.12.22-.39.73-.53,1.12-.31l7.81,4.46c.39.22.53.73.31,1.12-.22.39-.73.53-1.12.31l-7.81-4.47Zm77.19-6.82l-1.07-37.22-51.16,7.33.28,41.32,51.96-11.44Zm1.52-38.77l1.14,39.68c.07.67-.36,1.29-1.03,1.44l-54.62,12.02-.28.02c-.73,0-1.32-.58-1.32-1.31l-.3-44.01c-.05-.69.43-1.31,1.13-1.41l53.76-7.71h.15c.73-.02,1.34.55,1.35,1.28Zm-79.4,5.82l.17-13.77,8.74,3.68v14.64l-8.91-4.56Zm13.69-27.93l.54,87.9,71.27-16.08-.88-70.25-61.47,8.07c-.44.08-.92-.05-1.25-.42l-8.21-9.22Zm-1.63,90.55l-16.23-12.46c-.36-.27-.54-.7-.52-1.12l-.11-88.83-5.78-15.31c-.14-.31-.17-.67-.04-1.02.25-.69,1.02-1.04,1.7-.78l2.32.86-.24-.89c-.24-.94-.21-1.72.05-2.36.33-.79.94-1.3,1.8-1.56.1-.03.21-.05.32-.05l63.57-6.18h.19c.51.02.97.16,1.38.46l.08.07c.39.32.68.76.78,1.38l1.84,13.22,7.78-14.42c.31-.58,1-.84,1.6-.62l21.75,5.94c.7.19,1.11.91.92,1.62l-.05.16-7.66,18.5,12.21,10.23c.56.47.63,1.3.17,1.86-.23.29-.57.44-.91.47l-11.72,1.53.91,71.64c.01.64-.43,1.16-1.03,1.3l-73.92,16.67h-.03s-.02.01-.02.01h-.15c-.06,0-.13.01-.19,0h-.14s-.02-.01-.02-.01h-.07s-.01-.01-.01-.01h-.02l-.07-.02h-.04l-.04-.02h0s-.01-.01-.01-.01h-.01s-.06-.04-.06-.04h-.01l-.03-.02h-.01s-.04-.04-.04-.04h-.01s-.03-.03-.03-.03h-.01s-.01-.02-.01-.02l-.02-.02-.06-.04Zm-14.22-100.44l.11,86.27,13.64,10.47-.62-89.65-13.12-7.09Zm8.92-13.26l.1.03h.02s0,.01,0,.01h.06s.01.02.01.02h.01s.03.03.03.03h.01s.01.02.01.02c.28.16.51.41.61.74.79,2.41,1.58,4.83,2.35,7.23l50.82-6.62-2.06-14.81-63.1,6.16c-.04.12-.03.34.05.68l.67,2.46,10.39,4.06Zm54.27,8.73v-4.61l-50.16,6.54,1.75,5.58.08.28.09.28.08.27.08.28.08.28.08.24.08.27,47.82-6.12v-3.28Zm2.65,2.97l16.16-1.72-16.16-5.51v7.24Zm21.83.34l-70.56,8.54,8.47,9.5,62.34-8.19h.06l9.89-1.3-10.2-8.55Zm-20.82-10.14l20.49,7.1,6.99-16.86-19.37-5.29-8.11,15.05Z"/>
        </g>
      </g>
    </g>
    <g id="Service">
      <g class="cls-32">
        <g class="cls-24">
          <path class="cls-4" d="m550,994h-120c-11.05,0-20-8.95-20-20v-120c0-11.05,8.95-20,20-20h120c11.05,0,20,8.95,20,20v120c0,11.05-8.95,20-20,20"/>
          <path class="cls-10" d="m432.12,846.54c.58-.59.56-1.54-.03-2.11-.59-.58-1.54-.56-2.11.03l-11.54,11.91h0c-.58.59-.56,1.54.03,2.12.02.02.03.03.05.05l11.47,11.72c.58.59,1.52.61,2.11.03.59-.58.6-1.52.03-2.11l-10.53-10.77,10.53-10.86Z"/>
          <path class="cls-22" d="m432.12,846.54c.58-.59.56-1.54-.03-2.11-.59-.58-1.54-.56-2.11.03l-11.54,11.91h0c-.58.59-.56,1.54.03,2.12.02.02.03.03.05.05l11.47,11.72c.58.59,1.52.61,2.11.03.59-.58.6-1.52.03-2.11l-10.53-10.77,10.53-10.86Z"/>
          <path class="cls-5" d="m454.64,870.23c-3.76-3.25-8.69-4.81-13.64-4.33,14.81,12.08-2.73,27.69-12.47,9.52-4,8.98.17,17.26,8.46,21.51,3.91,2.01,5.98,3.17,7.41,4.79.81.93,1.47,1.97,1.97,3.09l3.69,8.74h-15.54c-1.36,0-2.45,1.11-2.44,2.47h0v43.28c.03,9.81,7.98,17.76,17.79,17.79h79.53c9.81-.03,17.77-7.98,17.79-17.79v-43.27c0-1.36-1.1-2.46-2.45-2.46h-23.7l13.83-23.27-9.91-5.71-17.33,28.99h-11.02v-3.03c0-.13-.04-.26-.13-.37-.53-.63-.93-1.06-1.27-1.49-.78-.91-1.18-1.36-1.18-1.66s.38-.79,1.15-1.75c.32-.39.7-.86,1.14-1.44.09-.11.14-.24.14-.38v-3.35c0-.32-.26-.58-.58-.58h-5.13l.1-23.37,3.09-5.41c.32-.49.49-1.06.49-1.64v-5.29c-.05-1.65-1.42-2.95-3.07-2.91h-7.22c-1.65.02-2.97,1.38-2.95,3.04l.08,5.86c0,.6.2,1.19.55,1.68l2.89,4.14-.1,23.94h-6.07c-.32,0-.58.26-.58.58h0v3.29c0,.14.05.28.15.38.5.55.92,1.06,1.29,1.4,1.06,1.13,1.57,1.68,1.58,2.11.01.43-.43.91-1.26,1.96-.41.52-.92,1.16-1.52,1.97-.09.1-.13.24-.13.37v1.97h-13.83l-5.82-13.66c-.6-1.27-.99-2.62-1.17-4.01-.08-1.33.02-2.66.3-3.97,1.41-8.23,4.23-15.08-2.89-21.71v-.02Zm-17.67,58.32h105.34v-10.08h-105.34v10.08Zm105.34,4.9h-14.67v8.24c0,1.84-1.48,3.33-3.31,3.35h-11.78c-1.85,0-3.35-1.5-3.35-3.35v-8.24h-37.95v8.24c0,1.85-1.5,3.35-3.35,3.35h-11.74c-1.85,0-3.36-1.5-3.36-3.35v-8.24h-15.81v25.85c.02,7.11,5.78,12.88,12.9,12.91h79.53c7.12-.02,12.89-5.79,12.92-12.91v-25.85Zm-35.66-52.62c1.68-1.25,3.58-2.17,5.61-2.72,2.78-.84,5.79-.52,8.33.9l21.56,12.43-1.3,2.26,8.2,4.77,7.96-13.75-8.19-4.77-1.48,2.5-21.43-12.36c-2.5-1.62-5.56-2.15-8.46-1.46-4.49,1.21-8.09,5.29-10.82,12.2h.04Z"/>
          <path class="cls-20" d="m454.64,870.23c-3.76-3.25-8.69-4.81-13.64-4.33,14.81,12.08-2.73,27.69-12.47,9.52-4,8.98.17,17.26,8.46,21.51,3.91,2.01,5.98,3.17,7.41,4.79.81.93,1.47,1.97,1.97,3.09l3.69,8.74h-15.54c-1.36,0-2.45,1.11-2.44,2.47h0v43.28c.03,9.81,7.98,17.76,17.79,17.79h79.53c9.81-.03,17.77-7.98,17.79-17.79v-43.27c0-1.36-1.1-2.46-2.45-2.46h-23.7l13.83-23.27-9.91-5.71-17.33,28.99h-11.02v-3.03c0-.13-.04-.26-.13-.37-.53-.63-.93-1.06-1.27-1.49-.78-.91-1.18-1.36-1.18-1.66s.38-.79,1.15-1.75c.32-.39.7-.86,1.14-1.44.09-.11.14-.24.14-.38v-3.35c0-.32-.26-.58-.58-.58h-5.13l.1-23.37,3.09-5.41c.32-.49.49-1.06.49-1.64v-5.29c-.05-1.65-1.42-2.95-3.07-2.91h-7.22c-1.65.02-2.97,1.38-2.95,3.04l.08,5.86c0,.6.2,1.19.55,1.68l2.89,4.14-.1,23.94h-6.07c-.32,0-.58.26-.58.58h0v3.29c0,.14.05.28.15.38.5.55.92,1.06,1.29,1.4,1.06,1.13,1.57,1.68,1.58,2.11.01.43-.43.91-1.26,1.96-.41.52-.92,1.16-1.52,1.97-.09.1-.13.24-.13.37v1.97h-13.83l-5.82-13.66c-.6-1.27-.99-2.62-1.17-4.01-.08-1.33.02-2.66.3-3.97,1.41-8.23,4.23-15.08-2.89-21.71v-.02Zm-17.67,58.32h105.34v-10.08h-105.34v10.08Zm105.34,4.9h-14.67v8.24c0,1.84-1.48,3.33-3.31,3.35h-11.78c-1.85,0-3.35-1.5-3.35-3.35v-8.24h-37.95v8.24c0,1.85-1.5,3.35-3.35,3.35h-11.74c-1.85,0-3.36-1.5-3.36-3.35v-8.24h-15.81v25.85c.02,7.11,5.78,12.88,12.9,12.91h79.53c7.12-.02,12.89-5.79,12.92-12.91v-25.85Zm-35.66-52.62c1.68-1.25,3.58-2.17,5.61-2.72,2.78-.84,5.79-.52,8.33.9l21.56,12.43-1.3,2.26,8.2,4.77,7.96-13.75-8.19-4.77-1.48,2.5-21.43-12.36c-2.5-1.62-5.56-2.15-8.46-1.46-4.49,1.21-8.09,5.29-10.82,12.2h.04Z"/>
        </g>
      </g>
    </g>
  </g>
  <g id="Finestra_messaggi" data-name="Finestra messaggi">
    <g id="Finestra_Messaggio" data-name="Finestra Messaggio">
      <g class="cls-61">
        <g class="cls-54">
          <rect class="cls-7" x="39.65" y="365.41" width="529" height="349" rx="19.5" ry="19.5"/>
          <path class="cls-6" d="m549.15,365.91c10.48,0,19,8.52,19,19v310c0,10.48-8.52,19-19,19H59.15c-10.48,0-19-8.52-19-19v-310c0-10.48,8.52-19,19-19h490Zm0-1H59.15c-11.05,0-20,8.95-20,20v310c0,11.05,8.95,20,20,20h490c11.05,0,20-8.95,20-20v-310c0-11.05-8.95-20-20-20"/>
          <rect class="cls-14" x="229.65" y="650.41" width="149" height="49" rx="4.5" ry="4.5"/>
          <path class="cls-6" d="m374.15,650.91c2.21,0,4,1.79,4,4v40c0,2.21-1.79,4-4,4h-140c-2.21,0-4-1.79-4-4v-40c0-2.21,1.79-4,4-4h140Zm0-1h-140c-2.76,0-5,2.24-5,5v40c0,2.76,2.24,5,5,5h140c2.76,0,5-2.24,5-5v-40c0-2.76-2.24-5-5-5"/>
          <path class="cls-8" d="m129.61,597.92l-24-41.67-.13-.25c-1.07-1.96-2.62-3.61-4.52-4.78-2.81-1.66-6.31-1.66-9.12,0-1.91,1.16-3.48,2.81-4.56,4.76l-24.52,42.44v-.02c-.06.11-.11.22-.17.34-.83,1.71-1.26,3.58-1.26,5.49.03,1.73.54,3.42,1.47,4.87.93,1.42,2.25,2.55,3.79,3.26,1.4.64,2.92.98,4.47.99h49.53c2.26.1,4.51-.45,6.47-1.58,1.38-.82,2.51-2,3.27-3.42.66-1.32,1-2.77.99-4.24,0-2.18-.59-4.32-1.71-6.18m-9.03,11.11h-49.17c-4.52.1-7.24-3.52-4.91-8.46l24.52-42.42c2.98-5.1,7.69-5.25,10.73,0l24.14,41.91c2.35,3.87,1.37,9.07-5.31,8.96"/>
          <path class="cls-20" d="m129.61,597.92l-24-41.67-.13-.25c-1.07-1.96-2.62-3.61-4.52-4.78-2.81-1.66-6.31-1.66-9.12,0-1.91,1.16-3.48,2.81-4.56,4.76l-24.52,42.44v-.02c-.06.11-.11.22-.17.34-.83,1.71-1.26,3.58-1.26,5.49.03,1.73.54,3.42,1.47,4.87.93,1.42,2.25,2.55,3.79,3.26,1.4.64,2.92.98,4.47.99h49.53c2.26.1,4.51-.45,6.47-1.58,1.38-.82,2.51-2,3.27-3.42.66-1.32,1-2.77.99-4.24,0-2.18-.59-4.32-1.71-6.18Zm-9.03,11.11h-49.17c-4.52.1-7.24-3.52-4.91-8.46l24.52-42.42c2.98-5.1,7.69-5.25,10.73,0l24.14,41.91c2.35,3.87,1.37,9.07-5.31,8.96Z"/>
          <path class="cls-8" d="m94.15,597.36c.88-.87,2.18-1.15,3.34-.7.43.16.82.42,1.14.74.54.54.87,1.26.91,2.02.02.27,0,.54-.05.8-.04.26-.13.52-.24.76-.52,1.16-1.69,1.89-2.97,1.85-.45-.01-.89-.11-1.29-.3-.73-.33-1.3-.93-1.6-1.67-.09-.24-.15-.49-.19-.75-.03-.25-.03-.5,0-.75.04-.4.15-.78.32-1.14.15-.34.57-.84.85-1.08l-.23.21Zm4.63-5.82c-.11,2.73-4.72,2.73-4.83,0-.47-4.67-1.67-15.76-1.62-20.14.04-1.35,1.14-2.16,2.59-2.46.47-.1.94-.15,1.41-.14.48,0,.96.05,1.43.14,1.48.32,2.64,1.14,2.64,2.53v.15l-1.62,19.93Z"/>
          <path class="cls-20" d="m94.15,597.36c.88-.87,2.18-1.15,3.34-.7.43.16.82.42,1.14.74.54.54.87,1.26.91,2.02.02.27,0,.54-.05.8-.04.26-.13.52-.24.76-.52,1.16-1.69,1.89-2.97,1.85-.45-.01-.89-.11-1.29-.3-.73-.33-1.3-.93-1.6-1.67-.09-.24-.15-.49-.19-.75-.03-.25-.03-.5,0-.75.04-.4.15-.78.32-1.14.15-.34.57-.84.85-1.08l-.23.21Zm4.63-5.82c-.11,2.73-4.72,2.73-4.83,0-.47-4.67-1.67-15.76-1.62-20.14.04-1.35,1.14-2.16,2.59-2.46.47-.1.94-.15,1.41-.14.48,0,.96.05,1.43.14,1.48.32,2.64,1.14,2.64,2.53v.15l-1.62,19.93Z"/>
          <path class="cls-3" d="m121.26,427.51l-.13-.25-24.06-41.77c-.06-.13-.13-.24-.2-.36-1-1.66-2.37-3.07-3.99-4.14-1.55-1-3.35-1.53-5.19-1.53-1.84,0-3.64.54-5.19,1.54-1.62,1.06-2.98,2.47-3.99,4.12l-.1.15-24.46,42.28h0c-.17.27-.32.56-.44.86-.62,1.58-.92,3.28-.89,4.98.03,1.95.62,3.84,1.71,5.46,1.08,1.58,2.63,2.8,4.42,3.48,1.13.42,2.32.64,3.53.65h49.63c1.78.05,3.55-.28,5.19-.99l.33-.15c1.67-.82,3.05-2.14,3.95-3.76.8-1.46,1.22-3.09,1.23-4.76.02-2.02-.44-4.01-1.35-5.8m-9.34,10.97h-49.27c-4.14.1-6.83-3.53-4.92-8.47h.01l24.58-42.49c2.98-4.7,7.71-4.82,10.75,0l24.17,41.98c1.92,3.88.97,9.11-5.32,8.98"/>
          <path class="cls-20" d="m121.26,427.51l-.13-.25-24.06-41.77c-.06-.13-.13-.24-.2-.36-1-1.66-2.37-3.07-3.99-4.14-1.55-1-3.35-1.53-5.19-1.53-1.84,0-3.64.54-5.19,1.54-1.62,1.06-2.98,2.47-3.99,4.12l-.1.15-24.46,42.28h0c-.17.27-.32.56-.44.86-.62,1.58-.92,3.28-.89,4.98.03,1.95.62,3.84,1.71,5.46,1.08,1.58,2.63,2.8,4.42,3.48,1.13.42,2.32.64,3.53.65h49.63c1.78.05,3.55-.28,5.19-.99l.33-.15c1.67-.82,3.05-2.14,3.95-3.76.8-1.46,1.22-3.09,1.23-4.76.02-2.02-.44-4.01-1.35-5.8Zm-9.34,10.97h-49.27c-4.14.1-6.83-3.53-4.92-8.47h.01l24.58-42.49c2.98-4.7,7.71-4.82,10.75,0l24.17,41.98c1.92,3.88.97,9.11-5.32,8.98Z"/>
          <path class="cls-3" d="m85.41,426.56c.53-.53,1.24-.85,1.98-.9.47-.03.93.04,1.37.2.43.17.82.42,1.14.75.54.54.87,1.26.92,2.02.02.27,0,.54-.04.8-.27,1.55-1.64,2.67-3.21,2.62-.45,0-.89-.11-1.29-.3-.73-.33-1.3-.93-1.61-1.67-.1-.23-.16-.48-.2-.72-.04-.25-.05-.5-.03-.75.04-.4.15-.78.33-1.14.15-.34.37-.64.64-.89v-.02Zm4.65-5.83c-.11,2.73-4.73,2.73-4.84,0-.47-4.68-1.66-16.74-1.62-21.13.04-1.36,1.14-2.16,2.6-2.47.94-.19,1.91-.19,2.85,0,1.49.32,2.65,1.14,2.65,2.53v.14l-1.63,20.93Z"/>
          <path class="cls-20" d="m85.41,426.56c.53-.53,1.24-.85,1.98-.9.47-.03.93.04,1.37.2.43.17.82.42,1.14.75.54.54.87,1.26.92,2.02.02.27,0,.54-.04.8-.27,1.55-1.64,2.67-3.21,2.62-.45,0-.89-.11-1.29-.3-.73-.33-1.3-.93-1.61-1.67-.1-.23-.16-.48-.2-.72-.04-.25-.05-.5-.03-.75.04-.4.15-.78.33-1.14.15-.34.37-.64.64-.89v-.02Zm4.65-5.83c-.11,2.73-4.73,2.73-4.84,0-.47-4.68-1.66-16.74-1.62-21.13.04-1.36,1.14-2.16,2.6-2.47.94-.19,1.91-.19,2.85,0,1.49.32,2.65,1.14,2.65,2.53v.14l-1.63,20.93Z"/>
          <path class="cls-14" d="m215.67,570.84c8.7,0,16.57,3.53,22.27,9.23,5.7,5.7,9.23,13.57,9.23,22.27s-3.53,16.57-9.23,22.27c-5.7,5.7-13.57,9.23-22.27,9.23s-16.57-3.53-22.27-9.23c-5.7-5.7-9.23-13.58-9.23-22.27s3.53-16.57,9.23-22.27c5.7-5.7,13.58-9.23,22.27-9.23m-1.23,19.81c0-.53.09-1.02.28-1.47.18-.45.46-.85.84-1.22.37-.36.77-.64,1.21-.82.44-.18.91-.28,1.42-.28s.98.1,1.41.28c.43.19.83.46,1.2.83.36.37.64.77.82,1.22.18.45.27.94.27,1.46s-.09.99-.27,1.44c-.18.44-.45.85-.82,1.23-.36.37-.76.65-1.2.84-.43.19-.91.28-1.42.28s-1-.09-1.45-.28c-.44-.19-.84-.47-1.21-.83-.36-.37-.64-.78-.82-1.23-.18-.44-.27-.93-.27-1.45m1.65,21.92c-.14.49-.41,1.45.41,1.45.18,0,.4-.1.67-.29.29-.21.63-.53,1-.95.38-.43.78-.94,1.19-1.53.41-.59.84-1.26,1.29-2.01.04-.08.15-.11.23-.06l1.52,1.13c.07.05.09.15.04.23-.7,1.22-1.41,2.28-2.12,3.18-.72.91-1.45,1.67-2.19,2.27h-.01c-.74.61-1.5,1.06-2.28,1.36-2.16.84-5.58.7-6.56-1.82-.62-1.6-.11-3.41.38-4.97l2.46-7.44c.16-.56.35-1.18.43-1.76.12-.97-.31-1.6-1.36-1.6h-2.15c-.09,0-.17-.08-.17-.17v-.06s.57-2.05.57-2.05c.02-.08.09-.13.17-.12l10.97-.34c.09,0,.17.07.18.16v.05s-4.65,15.34-4.65,15.34Zm19.48-30.14c-5.09-5.09-12.13-8.24-19.9-8.24s-14.81,3.15-19.9,8.24c-5.09,5.09-8.24,12.13-8.24,19.9s3.15,14.81,8.24,19.9,12.13,8.24,19.9,8.24,14.81-3.15,19.9-8.24c5.09-5.09,8.24-12.13,8.24-19.9s-3.15-14.81-8.24-19.9"/>
          <path class="cls-20" d="m215.67,570.84c8.7,0,16.57,3.53,22.27,9.23,5.7,5.7,9.23,13.57,9.23,22.27s-3.53,16.57-9.23,22.27c-5.7,5.7-13.57,9.23-22.27,9.23s-16.57-3.53-22.27-9.23c-5.7-5.7-9.23-13.58-9.23-22.27s3.53-16.57,9.23-22.27c5.7-5.7,13.58-9.23,22.27-9.23Zm-1.23,19.81c0-.53.09-1.02.28-1.47.18-.45.46-.85.84-1.22.37-.36.77-.64,1.21-.82.44-.18.91-.28,1.42-.28s.98.1,1.41.28c.43.19.83.46,1.2.83.36.37.64.77.82,1.22.18.45.27.94.27,1.46s-.09.99-.27,1.44c-.18.44-.45.85-.82,1.23-.36.37-.76.65-1.2.84-.43.19-.91.28-1.42.28s-1-.09-1.45-.28c-.44-.19-.84-.47-1.21-.83-.36-.37-.64-.78-.82-1.23-.18-.44-.27-.93-.27-1.45Zm1.65,21.92c-.14.49-.41,1.45.41,1.45.18,0,.4-.1.67-.29.29-.21.63-.53,1-.95.38-.43.78-.94,1.19-1.53.41-.59.84-1.26,1.29-2.01.04-.08.15-.11.23-.06l1.52,1.13c.07.05.09.15.04.23-.7,1.22-1.41,2.28-2.12,3.18-.72.91-1.45,1.67-2.19,2.27h-.01c-.74.61-1.5,1.06-2.28,1.36-2.16.84-5.58.7-6.56-1.82-.62-1.6-.11-3.41.38-4.97l2.46-7.44c.16-.56.35-1.18.43-1.76.12-.97-.31-1.6-1.36-1.6h-2.15c-.09,0-.17-.08-.17-.17v-.06s.57-2.05.57-2.05c.02-.08.09-.13.17-.12l10.97-.34c.09,0,.17.07.18.16v.05s-4.65,15.34-4.65,15.34Zm19.48-30.14c-5.09-5.09-12.13-8.24-19.9-8.24s-14.81,3.15-19.9,8.24c-5.09,5.09-8.24,12.13-8.24,19.9s3.15,14.81,8.24,19.9,12.13,8.24,19.9,8.24,14.81-3.15,19.9-8.24c5.09-5.09,8.24-12.13,8.24-19.9s-3.15-14.81-8.24-19.9Z"/>
        </g>
        <text class="cls-50" transform="translate(289.7 683.56)"><tspan x="0" y="0">OK</tspan></text>
        <text class="cls-50" transform="translate(61.88 486.58)"><tspan x="0" y="0">Unable to complete request to mammo.</tspan></text>
        <text class="cls-50" transform="translate(141.96 417.26)"><tspan x="0" y="0">90025</tspan></text>
      </g>
    </g>
  </g>
</svg>